<?xml version="1.0" encoding="UTF-8"?>
<!DOCTYPE svg PUBLIC "-//W3C//DTD SVG 1.1//EN" "http://www.w3.org/Graphics/SVG/1.1/DTD/svg11.dtd">
<svg xmlns="http://www.w3.org/2000/svg" version="1.1" width="1791px" height="162px" style="shape-rendering:geometricPrecision; text-rendering:geometricPrecision; image-rendering:optimizeQuality; fill-rule:evenodd; clip-rule:evenodd" xmlns:xlink="http://www.w3.org/1999/xlink">
<g><path style="opacity:0.949" fill="#fefffe" d="M 1204.5,2.5 C 1212.83,2.5 1221.17,2.5 1229.5,2.5C 1223.89,36.5575 1217.89,70.5575 1211.5,104.5C 1211.5,107.159 1212.83,108.493 1215.5,108.5C 1217.51,108.16 1219.51,107.827 1221.5,107.5C 1220.79,111.98 1220.12,116.48 1219.5,121C 1219.32,122.658 1218.66,123.991 1217.5,125C 1209.88,127.414 1202.22,127.747 1194.5,126C 1190.33,124.19 1187.66,121.024 1186.5,116.5C 1176.15,126.501 1164.15,129.334 1150.5,125C 1140.44,119.577 1135.27,111.077 1135,99.5C 1132.84,80.2963 1138,63.463 1150.5,49C 1161.59,39.9819 1173.92,37.6485 1187.5,42C 1190.78,43.5605 1193.62,45.7272 1196,48.5C 1198.77,33.1351 1201.61,17.8018 1204.5,2.5 Z M 1176.5,58.5 C 1184.16,56.69 1189.82,59.19 1193.5,66C 1191.07,77.4086 1188.9,88.9086 1187,100.5C 1181.09,108.584 1173.76,110.251 1165,105.5C 1159.26,92.3263 1159.93,79.3263 1167,66.5C 1169.77,63.2166 1172.94,60.5499 1176.5,58.5 Z"/></g>
<g><path style="opacity:0.944" fill="#fefffe" d="M 1502.5,22.5 C 1508.17,22.5 1513.83,22.5 1519.5,22.5C 1518.94,28.8455 1518.28,35.1789 1517.5,41.5C 1525.5,41.5 1533.5,41.5 1541.5,41.5C 1540.83,46.8333 1540.17,52.1667 1539.5,57.5C 1530.91,57.1834 1522.41,57.5168 1514,58.5C 1511.69,72.5493 1509.19,86.5493 1506.5,100.5C 1507.17,104.5 1509.5,106.833 1513.5,107.5C 1519.37,106.432 1525.03,104.766 1530.5,102.5C 1529.78,109.412 1528.78,116.245 1527.5,123C 1515.23,127.12 1502.9,127.453 1490.5,124C 1483.94,120.052 1480.61,114.219 1480.5,106.5C 1483.06,90.1413 1485.73,73.8079 1488.5,57.5C 1484.17,57.5 1479.83,57.5 1475.5,57.5C 1476.17,52.1667 1476.83,46.8333 1477.5,41.5C 1483.21,41.8288 1488.87,41.4954 1494.5,40.5C 1497.37,34.559 1500.03,28.559 1502.5,22.5 Z"/></g>
<g><path style="opacity:0.789" fill="#ececec" d="M 102.5,24.5 C 107.167,24.5 111.833,24.5 116.5,24.5C 116.333,37.8375 116.5,51.1708 117,64.5C 126.277,52.1268 135.444,39.6268 144.5,27C 150.997,25.2697 157.497,25.103 164,26.5C 164.167,27 164.333,27.5 164.5,28C 153.646,42.3447 142.646,56.5114 131.5,70.5C 142.989,86.1524 154.655,101.652 166.5,117C 166.355,117.772 166.022,118.439 165.5,119C 159.5,119.667 153.5,119.667 147.5,119C 138.698,106.565 129.531,94.3979 120,82.5C 118.561,80.7254 117.561,78.7254 117,76.5C 116.667,90.5 116.333,104.5 116,118.5C 111.599,119.467 107.099,119.8 102.5,119.5C 102.5,87.8333 102.5,56.1667 102.5,24.5 Z"/></g>
<g><path style="opacity:0.656" fill="#ececec" d="M 728.5,24.5 C 737.97,24.474 741.804,29.1407 740,38.5C 734.555,46.4309 729.055,46.4309 723.5,38.5C 722.348,35.8938 722.182,33.2272 723,30.5C 724.36,27.9774 726.193,25.9774 728.5,24.5 Z"/></g>
<g><path style="opacity:0.78" fill="#ededed" d="M 442.5,25.5 C 457.346,25.5403 472.012,25.5403 486.5,25.5C 492.659,25.5788 497.326,28.2455 500.5,33.5C 507.705,46.6157 507.039,59.2824 498.5,71.5C 504.515,78.7399 506.682,87.0733 505,96.5C 504.305,106.232 499.805,113.565 491.5,118.5C 474.269,119.824 457.102,119.824 440,118.5C 439.5,87.8351 439.333,57.1685 439.5,26.5C 440.791,26.7373 441.791,26.404 442.5,25.5 Z M 455.5,42.5 C 465.193,41.1923 475.026,41.1923 485,42.5C 486.52,43.697 487.687,45.197 488.5,47C 487.167,51 487.167,55 488.5,59C 487.695,60.9717 486.361,62.4717 484.5,63.5C 474.851,64.6655 465.184,64.8321 455.5,64C 456.827,56.7348 456.827,49.5681 455.5,42.5 Z M 455.5,80.5 C 465.898,80.1009 476.232,80.6009 486.5,82C 487.167,83 487.833,84 488.5,85C 487.697,89.4145 487.197,93.9145 487,98.5C 486.355,99.646 485.522,100.646 484.5,101.5C 474.856,102.498 465.19,102.832 455.5,102.5C 455.5,95.1667 455.5,87.8333 455.5,80.5 Z"/></g>
<g><path style="opacity:0.721" fill="#ececec" d="M 665.5,25.5 C 670.214,25.3531 674.881,25.6864 679.5,26.5C 679.167,51.1757 679.5,75.8423 680.5,100.5C 681.308,100.808 681.975,101.308 682.5,102C 695.162,102.5 707.829,102.667 720.5,102.5C 722.162,108.183 721.829,113.683 719.5,119C 705.833,119.667 692.167,119.667 678.5,119C 669.555,115.051 664.389,108.218 663,98.5C 662.5,74.5023 662.333,50.5023 662.5,26.5C 663.791,26.7373 664.791,26.404 665.5,25.5 Z"/></g>
<g><path style="opacity:0.834" fill="#4354f5" d="M 881.5,39.5 C 882.497,39.4701 883.164,39.9701 883.5,41C 881.937,46.6078 881.271,46.1078 881.5,39.5 Z"/></g>
<g><path style="opacity:0.945" fill="#fefffe" d="M 920.5,39.5 C 926.533,38.9652 932.199,40.1319 937.5,43C 939.964,46.0492 941.464,49.5492 942,53.5C 950.785,41.0143 962.619,36.8476 977.5,41C 984.835,43.6705 989.335,48.8372 991,56.5C 1000.35,40.1099 1013.85,35.6099 1031.5,43C 1038.56,48.1288 1041.9,55.1288 1041.5,64C 1040.26,75.5904 1038.43,87.0904 1036,98.5C 1033.09,107.319 1035.92,110.319 1044.5,107.5C 1044.47,113.539 1043.47,119.373 1041.5,125C 1033.56,127.496 1025.56,127.829 1017.5,126C 1011.34,123.189 1008.67,118.356 1009.5,111.5C 1010.79,99.4228 1012.62,87.4228 1015,75.5C 1015.67,71.1667 1015.67,66.8333 1015,62.5C 1014.5,60.6667 1013.33,59.5 1011.5,59C 1005.72,57.4914 1000.88,58.9914 997,63.5C 994.473,67.2211 992.473,71.2211 991,75.5C 987.677,91.7714 984.677,108.105 982,124.5C 973.585,125.483 965.085,125.817 956.5,125.5C 960.047,106.216 963.381,86.8828 966.5,67.5C 966.572,61.7394 963.739,58.7394 958,58.5C 949.4,60.4336 944.066,65.7669 942,74.5C 938.187,91.3798 935.02,108.38 932.5,125.5C 923.808,125.831 915.141,125.498 906.5,124.5C 910.542,104.082 914.209,83.5821 917.5,63C 917.441,61.5643 917.108,60.231 916.5,59C 913.386,58.8771 910.386,58.7104 907.5,58.5C 908.247,52.9309 909.247,47.4309 910.5,42C 913.991,41.262 917.325,40.4287 920.5,39.5 Z"/></g>
<g><path style="opacity:0.949" fill="#fefffe" d="M 1088.5,39.5 C 1122.64,38.4245 1136.81,54.7578 1131,88.5C 1122.53,120.496 1102.03,132.663 1069.5,125C 1054.45,119.242 1047.45,108.242 1048.5,92C 1047.7,72.9476 1054.7,57.6142 1069.5,46C 1075.59,42.738 1081.92,40.5713 1088.5,39.5 Z M 1089.5,58.5 C 1101.41,57.7462 1107.08,63.4129 1106.5,75.5C 1106.53,84.733 1104.36,93.3997 1100,101.5C 1092.48,109.821 1084.48,110.488 1076,103.5C 1072.47,89.8403 1074.13,76.8403 1081,64.5C 1083.32,61.6047 1086.16,59.6047 1089.5,58.5 Z"/></g>
<g><path style="opacity:0.943" fill="#fefffe" d="M 1266.5,39.5 C 1300.7,38.021 1313.37,53.6877 1304.5,86.5C 1286.83,86.5 1269.17,86.5 1251.5,86.5C 1248.18,106.358 1255.85,112.858 1274.5,106C 1277.37,103.087 1278.71,99.587 1278.5,95.5C 1286.56,95.5046 1294.56,96.1713 1302.5,97.5C 1300.13,113.706 1290.8,123.206 1274.5,126C 1237.75,131.578 1221.91,116.078 1227,79.5C 1231.06,56.9368 1244.23,43.6034 1266.5,39.5 Z M 1268.5,56.5 C 1279.51,55.1879 1284.51,59.8546 1283.5,70.5C 1273.83,71.8333 1264.17,71.8333 1254.5,70.5C 1256.88,63.4491 1261.55,58.7824 1268.5,56.5 Z"/></g>
<g><path style="opacity:0.939" fill="#fefffe" d="M 1385.5,70.5 C 1384.14,72.22 1383.14,74.22 1382.5,76.5C 1375.19,77.2817 1367.86,77.2817 1360.5,76.5C 1362.45,71.2482 1362.79,65.9149 1361.5,60.5C 1356.88,57.6917 1353.05,58.6917 1350,63.5C 1346.88,68.4146 1344.88,73.7479 1344,79.5C 1341.06,94.8266 1338.22,110.16 1335.5,125.5C 1327.17,125.5 1318.83,125.5 1310.5,125.5C 1313.78,105.003 1317.11,84.5032 1320.5,64C 1320.46,62.2358 1320.12,60.5691 1319.5,59C 1317.1,58.289 1314.77,58.4557 1312.5,59.5C 1311.62,53.5992 1311.95,47.7658 1313.5,42C 1321.42,39.3098 1329.42,38.9764 1337.5,41C 1342.15,43.7909 1344.65,47.9576 1345,53.5C 1352.17,41.1727 1362.67,37.006 1376.5,41C 1381.58,43.743 1384.75,47.9096 1386,53.5C 1386.55,59.188 1386.39,64.8546 1385.5,70.5 Z"/></g>
<g><path style="opacity:0.948" fill="#fefffe" d="M 1385.5,70.5 C 1389.7,57.4588 1398.04,47.9588 1410.5,42C 1420.47,38.2699 1430.14,38.9366 1439.5,44C 1442.04,46.2047 1444.21,48.7047 1446,51.5C 1447.5,48.5 1449,45.5 1450.5,42.5C 1457.13,41.5033 1463.8,41.17 1470.5,41.5C 1466.9,62.6663 1463.23,83.833 1459.5,105C 1459.59,106.107 1459.92,107.107 1460.5,108C 1463.53,108.495 1466.53,108.329 1469.5,107.5C 1468.56,112.803 1467.73,118.137 1467,123.5C 1465.51,125.004 1463.68,125.837 1461.5,126C 1453.24,128.654 1445.41,127.821 1438,123.5C 1436.83,121.158 1435.66,118.824 1434.5,116.5C 1424.17,126.531 1412.17,129.364 1398.5,125C 1390.68,121.181 1385.85,115.014 1384,106.5C 1381.86,94.3915 1382.36,82.3915 1385.5,70.5 Z M 1425.5,58.5 C 1433.37,56.756 1438.37,59.5894 1440.5,67C 1438.72,78.9133 1436.55,90.7466 1434,102.5C 1428.84,108.329 1422.67,109.829 1415.5,107C 1413.62,105.457 1412.12,103.624 1411,101.5C 1408.32,90.0252 1409.65,79.0252 1415,68.5C 1417.74,64.2595 1421.24,60.9262 1425.5,58.5 Z"/></g>
<g><path style="opacity:0.946" fill="#fefffe" d="M 1576.5,39.5 C 1588.91,38.3952 1600.25,41.2286 1610.5,48C 1617.46,55.3859 1620.8,64.2193 1620.5,74.5C 1619.54,113.305 1599.87,130.472 1561.5,126C 1544.18,121.382 1535.85,110.049 1536.5,92C 1535.69,72.9575 1542.69,57.6242 1557.5,46C 1563.59,42.738 1569.92,40.5713 1576.5,39.5 Z M 1577.5,58.5 C 1586.17,56.9057 1591.67,60.239 1594,68.5C 1595.56,80.1663 1593.56,91.1663 1588,101.5C 1581.08,109.379 1573.41,110.379 1565,104.5C 1560.82,90.6681 1562.15,77.3348 1569,64.5C 1571.67,62.0976 1574.5,60.0976 1577.5,58.5 Z"/></g>
<g><path style="opacity:0.941" fill="#fefffe" d="M 1699.5,69.5 C 1698.6,70.209 1698.26,71.209 1698.5,72.5C 1697.4,73.8484 1696.4,75.3484 1695.5,77C 1688.5,77.228 1681.5,77.0613 1674.5,76.5C 1675.06,72.9895 1675.72,69.4895 1676.5,66C 1676.54,60.3677 1673.88,58.0343 1668.5,59C 1662.52,64.1225 1659.02,70.6225 1658,78.5C 1655.1,94.1668 1652.27,109.833 1649.5,125.5C 1640.83,125.666 1632.16,125.5 1623.5,125C 1627.48,104.432 1631.15,83.7655 1634.5,63C 1634.44,61.5643 1634.11,60.231 1633.5,59C 1630.39,58.8771 1627.39,58.7104 1624.5,58.5C 1625.74,52.9139 1626.41,47.2473 1626.5,41.5C 1631.64,40.672 1636.8,40.0054 1642,39.5C 1652.82,38.878 1658.15,43.878 1658,54.5C 1666.37,40.042 1678.21,36.2086 1693.5,43C 1698.43,47.3579 1700.76,52.8579 1700.5,59.5C 1699.95,62.8167 1699.61,66.15 1699.5,69.5 Z"/></g>
<g><path style="opacity:0.943" fill="#fefffe" d="M 1698.5,72.5 C 1699.4,71.791 1699.74,70.791 1699.5,69.5C 1707.24,49.96 1721.74,39.96 1743,39.5C 1773.49,41.1538 1783.99,56.4872 1774.5,85.5C 1756.85,86.4995 1739.18,86.8329 1721.5,86.5C 1721.33,91.1785 1721.5,95.8452 1722,100.5C 1723.95,106.15 1727.95,109.15 1734,109.5C 1743.19,109.139 1748.36,104.472 1749.5,95.5C 1757.17,95.778 1764.84,96.1114 1772.5,96.5C 1771.41,113.426 1762.41,123.259 1745.5,126C 1704.36,130.98 1688.69,113.146 1698.5,72.5 Z M 1739.5,56.5 C 1750.91,55.2406 1755.91,60.2406 1754.5,71.5C 1744.49,71.6665 1734.49,71.4998 1724.5,71C 1726.79,63.2084 1731.79,58.375 1739.5,56.5 Z"/></g>
<g><path style="opacity:0.004" fill="#ecedec" d="M 738.5,46.5 C 739.833,47.1667 739.833,47.1667 738.5,46.5 Z"/></g>
<g><path style="opacity:0.781" fill="#ececec" d="M 170.5,47.5 C 185.504,47.3334 200.504,47.5001 215.5,48C 221.084,51.2505 224.251,56.0838 225,62.5C 225.667,75.8333 225.667,89.1667 225,102.5C 223.743,109.358 220.243,114.691 214.5,118.5C 203.849,119.666 193.182,119.832 182.5,119C 176.151,115.989 171.984,111.155 170,104.5C 169.333,97.8333 169.333,91.1667 170,84.5C 170.555,77.8751 173.721,73.0417 179.5,70C 190.161,69.5002 200.828,69.3335 211.5,69.5C 211.682,67.4086 211.348,65.4086 210.5,63.5C 197.179,62.6673 183.846,62.1673 170.5,62C 169.192,57.1672 169.192,52.3338 170.5,47.5 Z M 186.5,82.5 C 193.841,82.3337 201.174,82.5003 208.5,83C 209.333,83.8333 210.167,84.6667 211,85.5C 211.83,91.1959 211.663,96.8625 210.5,102.5C 206.351,103.769 202.018,104.435 197.5,104.5C 193.5,104.333 189.5,104.167 185.5,104C 183.039,101.173 182.039,97.8396 182.5,94C 182.667,91.8333 182.833,89.6667 183,87.5C 184.412,85.9354 185.579,84.2687 186.5,82.5 Z"/></g>
<g><path style="opacity:0.749" fill="#ececec" d="M 247.5,47.5 C 259.171,47.3335 270.838,47.5001 282.5,48C 287.05,50.883 290.55,54.7163 293,59.5C 293.667,74.8333 293.667,90.1667 293,105.5C 290.554,111.056 286.721,115.39 281.5,118.5C 271.522,119.499 261.522,119.832 251.5,119.5C 251.5,126.5 251.5,133.5 251.5,140.5C 246.5,140.5 241.5,140.5 236.5,140.5C 236.333,115.164 236.5,89.8311 237,64.5C 237.154,60.9021 238.154,57.5687 240,54.5C 242.449,51.8762 244.949,49.5429 247.5,47.5 Z M 253.5,62.5 C 262.085,62.1834 270.585,62.5168 279,63.5C 279.667,76.1667 279.667,88.8333 279,101.5C 278.308,102.025 277.808,102.692 277.5,103.5C 273.5,103.833 269.5,104.167 265.5,104.5C 260.982,104.435 256.649,103.769 252.5,102.5C 250.915,89.0051 251.248,75.6718 253.5,62.5 Z"/></g>
<g><path style="opacity:0.765" fill="#ececec" d="M 318.5,140.5 C 313.833,140.5 309.167,140.5 304.5,140.5C 304.188,113.312 304.521,86.1452 305.5,59C 307.814,54.5457 311.148,51.0457 315.5,48.5C 327.167,47.1667 338.833,47.1667 350.5,48.5C 356.073,51.2318 359.573,55.5652 361,61.5C 361.667,75.5 361.667,89.5 361,103.5C 359.259,110.078 355.426,115.078 349.5,118.5C 339.272,119.818 329.106,119.818 319,118.5C 318.5,125.826 318.334,133.159 318.5,140.5 Z M 321.5,62.5 C 329.833,62.5 338.167,62.5 346.5,62.5C 347.608,75.1338 347.775,87.8005 347,100.5C 346.535,101.931 345.701,103.097 344.5,104C 336.833,104.667 329.167,104.667 321.5,104C 320.107,102.829 319.273,101.329 319,99.5C 318.333,88.1667 318.333,76.8333 319,65.5C 320.045,64.6266 320.878,63.6266 321.5,62.5 Z"/></g>
<g><path style="opacity:0.775" fill="#ececec" d="M 372.5,47.5 C 387.848,47.1673 403.181,47.5006 418.5,48.5C 422.88,50.7128 426.047,54.0462 428,58.5C 428.957,75.5666 428.624,92.5666 427,109.5C 424.269,112.962 421.103,115.962 417.5,118.5C 406.5,119.833 395.5,119.833 384.5,118.5C 375.364,113.103 371.364,105.103 372.5,94.5C 371.74,84.8702 374.74,76.7036 381.5,70C 392.495,69.5002 403.495,69.3335 414.5,69.5C 414.756,67.2075 414.423,65.0408 413.5,63C 399.837,62.5001 386.171,62.3334 372.5,62.5C 372.5,57.5 372.5,52.5 372.5,47.5 Z M 389.5,82.5 C 396.841,82.3337 404.174,82.5003 411.5,83C 412.333,83.8333 413.167,84.6667 414,85.5C 414.83,91.1959 414.663,96.8625 413.5,102.5C 412.692,102.808 412.025,103.308 411.5,104C 404.167,104.667 396.833,104.667 389.5,104C 386.959,101.251 385.959,97.9177 386.5,94C 386.667,91.5 386.833,89 387,86.5C 388.085,85.2644 388.918,83.9311 389.5,82.5 Z"/></g>
<g><path style="opacity:0.761" fill="#ececec" d="M 525.5,47.5 C 536.853,47.1678 548.186,47.5012 559.5,48.5C 564.657,50.2371 568.324,53.5705 570.5,58.5C 571.636,73.8077 571.802,89.141 571,104.5C 569.232,110.776 565.399,115.443 559.5,118.5C 548.515,119.666 537.515,119.832 526.5,119C 521.226,115.726 517.392,111.226 515,105.5C 514.333,90.1667 514.333,74.8333 515,59.5C 516,57.5 517,55.5 518,53.5C 521.011,51.9733 523.511,49.9733 525.5,47.5 Z M 531.5,62.5 C 539.174,62.3336 546.841,62.5003 554.5,63C 555,63.5 555.5,64 556,64.5C 557.576,75.7747 557.909,87.108 557,98.5C 556.837,100.676 556.004,102.509 554.5,104C 546.812,104.831 539.145,104.665 531.5,103.5C 530.833,102.833 530.167,102.167 529.5,101.5C 528.354,89.546 528.188,77.546 529,65.5C 530.045,64.6266 530.878,63.6266 531.5,62.5 Z"/></g>
<g><path style="opacity:0.736" fill="#ececec" d="M 578.5,47.5 C 583.544,47.1725 588.544,47.5059 593.5,48.5C 598.64,55.5366 603.14,62.5366 607,69.5C 610.79,62.0837 614.956,54.917 619.5,48C 624.823,47.5006 630.156,47.334 635.5,47.5C 635.643,49.2624 635.309,50.9291 634.5,52.5C 628.13,62.5239 621.797,72.5239 615.5,82.5C 620.725,90.2553 625.559,98.2553 630,106.5C 631.81,109.466 633.976,112.132 636.5,114.5C 637.614,115.723 637.781,117.056 637,118.5C 631.918,119.637 626.751,119.804 621.5,119C 616.689,111.181 611.856,103.348 607,95.5C 601.851,103.321 596.684,111.155 591.5,119C 586.511,119.499 581.511,119.666 576.5,119.5C 576.215,117.712 576.548,116.045 577.5,114.5C 584.544,103.803 591.544,93.1366 598.5,82.5C 592.953,72.7807 586.786,63.4474 580,54.5C 578.463,52.1409 577.963,49.8076 578.5,47.5 Z"/></g>
<g><path style="opacity:0.728" fill="#ecedec" d="M 738.5,47.5 C 738.5,71.5 738.5,95.5 738.5,119.5C 733.901,119.8 729.401,119.467 725,118.5C 724.5,94.8357 724.333,71.169 724.5,47.5C 729.167,47.5 733.833,47.5 738.5,47.5 Z"/></g>
<g><path style="opacity:0.738" fill="#ececec" d="M 743.5,47.5 C 748.43,47.1975 753.263,47.5308 758,48.5C 763.649,65.7338 769.316,83.0672 775,100.5C 780.864,83.2411 786.531,65.9078 792,48.5C 796.737,47.5308 801.57,47.1975 806.5,47.5C 806.453,50.5682 805.953,53.5682 805,56.5C 798.172,76.1619 791.505,95.8286 785,115.5C 780.584,120.545 775.084,121.878 768.5,119.5C 764.147,112.759 761.314,105.425 760,97.5C 757,90.1667 754,82.8333 751,75.5C 748.43,66.1366 745.93,56.8033 743.5,47.5 Z"/></g>
<g><path style="opacity:0.765" fill="#ecedec" d="M 823.5,47.5 C 834.187,47.168 844.854,47.5013 855.5,48.5C 866.3,55.1512 869.633,64.6512 865.5,77C 853.306,81.7863 841.64,87.6196 830.5,94.5C 828.865,95.0463 827.199,95.3796 825.5,95.5C 825.02,98.6852 825.686,101.519 827.5,104C 840.496,104.5 853.496,104.667 866.5,104.5C 866.5,109.5 866.5,114.5 866.5,119.5C 852.163,119.667 837.829,119.5 823.5,119C 818.191,116.233 814.358,112.067 812,106.5C 811.333,91.5 811.333,76.5 812,61.5C 813.289,58.3069 814.956,55.3069 817,52.5C 819.406,50.9134 821.572,49.2467 823.5,47.5 Z M 827.5,62.5 C 835.174,62.3336 842.841,62.5003 850.5,63C 852.037,64.1096 852.703,65.6096 852.5,67.5C 842.981,70.3425 834.148,74.6758 826,80.5C 825.03,74.2899 825.53,68.2899 827.5,62.5 Z"/></g>
<g><path style="opacity:0.63" fill="#ecedec" d="M 644.5,99.5 C 652.942,99.7796 656.442,104.113 655,112.5C 654.995,115.229 653.829,117.229 651.5,118.5C 643.716,120.893 639.05,118.06 637.5,110C 638.12,105.238 640.453,101.738 644.5,99.5 Z"/></g>
<g><path style="opacity:0.004" fill="#ecedec" d="M 318.5,140.5 C 319.833,141.167 319.833,141.167 318.5,140.5 Z"/></g>
</svg>
