<?xml version="1.0" encoding="UTF-8"?>
<!DOCTYPE svg PUBLIC "-//W3C//DTD SVG 1.1//EN" "http://www.w3.org/Graphics/SVG/1.1/DTD/svg11.dtd">
<svg xmlns="http://www.w3.org/2000/svg" version="1.1" width="500px" height="100px" style="shape-rendering:geometricPrecision; text-rendering:geometricPrecision; image-rendering:optimizeQuality; fill-rule:evenodd; clip-rule:evenodd" xmlns:xlink="http://www.w3.org/1999/xlink">
<g><path style="opacity:0.803" fill="#ecedec" d="M 5.5,20.5 C 8.5,20.5 11.5,20.5 14.5,20.5C 14.3336,28.1739 14.5003,35.8406 15,43.5C 20.7125,35.9095 26.5458,28.4095 32.5,21C 37.0204,20.0716 41.3537,20.4049 45.5,22C 38.1071,30.3884 31.1071,39.0551 24.5,48C 31.6296,57.2999 38.9629,66.4665 46.5,75.5C 42.2047,76.6609 37.8713,76.8275 33.5,76C 27.4539,68.0758 21.2872,60.2425 15,52.5C 14.5003,60.4931 14.3336,68.4931 14.5,76.5C 11.5,76.5 8.5,76.5 5.5,76.5C 5.5,57.8333 5.5,39.1667 5.5,20.5 Z"/></g>
<g><path style="opacity:0.833" fill="#ecedec" d="M 222.5,20.5 C 233.505,20.3335 244.505,20.5002 255.5,21C 261.434,24.3648 264.101,29.5315 263.5,36.5C 264.041,41.0463 262.708,44.8796 259.5,48C 263.227,53.2429 264.393,59.0762 263,65.5C 262.436,69.1267 260.936,72.2934 258.5,75C 246.601,76.4586 234.601,76.9586 222.5,76.5C 222.5,57.8333 222.5,39.1667 222.5,20.5 Z M 232.5,29.5 C 238.176,29.3339 243.843,29.5006 249.5,30C 252.859,31.1351 254.192,33.4684 253.5,37C 254.192,40.5316 252.859,42.8649 249.5,44C 243.843,44.4994 238.176,44.6661 232.5,44.5C 232.5,39.5 232.5,34.5 232.5,29.5 Z M 232.5,53.5 C 238.176,53.3339 243.843,53.5006 249.5,54C 252.565,54.7865 253.898,56.7865 253.5,60C 253.699,63.2738 252.366,65.6071 249.5,67C 243.843,67.4994 238.176,67.6661 232.5,67.5C 232.5,62.8333 232.5,58.1667 232.5,53.5 Z"/></g>
<g><path style="opacity:0.788" fill="#ecedec" d="M 365.5,20.5 C 368.833,20.5 372.167,20.5 375.5,20.5C 375.183,35.5484 375.516,50.5484 376.5,65.5C 377.376,66.2508 378.376,66.7508 379.5,67C 387.159,67.4997 394.826,67.6664 402.5,67.5C 402.5,70.5 402.5,73.5 402.5,76.5C 393.161,76.6665 383.827,76.4998 374.5,76C 369.929,74.4271 367.096,71.2604 366,66.5C 365.5,51.1703 365.333,35.837 365.5,20.5 Z"/></g>
<g><path style="opacity:0.685" fill="#ecedec" d="M 406.5,20.5 C 411.468,19.3104 414.468,21.1437 415.5,26C 413.516,31.7465 410.016,32.9132 405,29.5C 403.01,26.1261 403.51,23.1261 406.5,20.5 Z"/></g>
<g><path style="opacity:0.814" fill="#ecedec" d="M 48.5,34.5 C 58.5056,34.3335 68.5056,34.5002 78.5,35C 81.6626,36.4798 83.496,38.9798 84,42.5C 84.6667,50.8333 84.6667,59.1667 84,67.5C 83.3002,71.0662 81.4668,73.8995 78.5,76C 70.8333,76.6667 63.1667,76.6667 55.5,76C 52.6667,74.5 50.5,72.3333 49,69.5C 45.9361,48.7479 54.7694,41.0812 75.5,46.5C 75.67,45.1779 75.3366,44.0113 74.5,43C 65.8397,42.5002 57.1731,42.3336 48.5,42.5C 48.5,39.8333 48.5,37.1667 48.5,34.5 Z M 60.5,54.5 C 64.8461,54.3343 69.1794,54.501 73.5,55C 74,55.5 74.5,56 75,56.5C 75.6667,59.8333 75.6667,63.1667 75,66.5C 74.5,67 74,67.5 73.5,68C 68.4456,68.781 63.4456,68.6143 58.5,67.5C 56.534,64.451 56.034,61.1177 57,57.5C 58.1451,56.3636 59.3117,55.3636 60.5,54.5 Z"/></g>
<g><path style="opacity:0.811" fill="#ecedec" d="M 98.5,34.5 C 106.507,34.3336 114.507,34.5003 122.5,35C 124.378,36.5429 125.878,38.3762 127,40.5C 127.95,50.9325 127.617,61.2659 126,71.5C 124.605,73.1397 123.105,74.6397 121.5,76C 114.508,76.4996 107.508,76.6663 100.5,76.5C 100.5,80.8333 100.5,85.1667 100.5,89.5C 97.5,89.5 94.5,89.5 91.5,89.5C 91.3334,73.8298 91.5001,58.1631 92,42.5C 92.9294,38.7455 95.0961,36.0788 98.5,34.5 Z M 103.5,42.5 C 108.179,42.3342 112.845,42.5008 117.5,43C 118,43.5 118.5,44 119,44.5C 119.667,51.5 119.667,58.5 119,65.5C 118.692,66.3081 118.192,66.9747 117.5,67.5C 112.554,68.6143 107.554,68.781 102.5,68C 102,67.5 101.5,67 101,66.5C 100.333,59.1667 100.333,51.8333 101,44.5C 101.995,43.9341 102.828,43.2674 103.5,42.5 Z"/></g>
<g><path style="opacity:0.796" fill="#ecedec" d="M 141.5,34.5 C 149.507,34.3336 157.507,34.5003 165.5,35C 168,36.1667 169.833,38 171,40.5C 171.926,50.9072 171.592,61.2405 170,71.5C 168.457,73.3783 166.624,74.8783 164.5,76C 157.842,76.4996 151.175,76.6663 144.5,76.5C 144.5,80.8333 144.5,85.1667 144.5,89.5C 141.5,89.5 138.5,89.5 135.5,89.5C 135.333,73.1633 135.5,56.8299 136,40.5C 137.36,37.9774 139.193,35.9774 141.5,34.5 Z M 146.5,42.5 C 151.762,42.1953 156.928,42.5286 162,43.5C 162.667,51.1667 162.667,58.8333 162,66.5C 161.5,67 161,67.5 160.5,68C 155.833,68.6667 151.167,68.6667 146.5,68C 146,67.5 145.5,67 145,66.5C 144.333,59.1667 144.333,51.8333 145,44.5C 145.717,43.9558 146.217,43.2891 146.5,42.5 Z"/></g>
<g><path style="opacity:0.817" fill="#ecedec" d="M 179.5,34.5 C 189.506,34.3335 199.506,34.5002 209.5,35C 211,36.5 212.5,38 214,39.5C 216,49.8333 216,60.1667 214,70.5C 212.167,72.3333 210.333,74.1667 208.5,76C 200.833,76.6667 193.167,76.6667 185.5,76C 183.667,74.1667 181.833,72.3333 180,70.5C 179.13,64.0828 179.464,57.7494 181,51.5C 182.5,50 184,48.5 185.5,47C 192.524,46.8311 199.524,46.3311 206.5,45.5C 206.023,44.5224 205.357,43.6891 204.5,43C 196.173,42.5003 187.84,42.3336 179.5,42.5C 179.5,39.8333 179.5,37.1667 179.5,34.5 Z M 190.5,54.5 C 195.233,54.2232 199.9,54.5565 204.5,55.5C 205.192,56.0253 205.692,56.6919 206,57.5C 208.824,66.0058 205.824,69.6724 197,68.5C 188.176,69.6724 185.176,66.0058 188,57.5C 189.045,56.6266 189.878,55.6266 190.5,54.5 Z"/></g>
<g><path style="opacity:0.811" fill="#ecedec" d="M 276.5,34.5 C 284.507,34.3336 292.507,34.5003 300.5,35C 302.09,36.0458 303.59,37.2125 305,38.5C 306.617,48.7341 306.95,59.0675 306,69.5C 304.542,71.96 302.709,74.1266 300.5,76C 292.5,76.6667 284.5,76.6667 276.5,76C 275,74.5 273.5,73 272,71.5C 270.381,60.9319 270.048,50.2653 271,39.5C 272.73,37.5981 274.563,35.9314 276.5,34.5 Z M 281.5,42.5 C 286.179,42.3342 290.845,42.5008 295.5,43C 296,43.5 296.5,44 297,44.5C 297.667,51.8333 297.667,59.1667 297,66.5C 296.5,67 296,67.5 295.5,68C 290.833,68.6667 286.167,68.6667 281.5,68C 281,67.5 280.5,67 280,66.5C 278.409,59.608 278.076,52.608 279,45.5C 280.045,44.6266 280.878,43.6266 281.5,42.5 Z"/></g>
<g><path style="opacity:0.767" fill="#ecedec" d="M 310.5,34.5 C 314.226,34.1774 317.893,34.5108 321.5,35.5C 324.494,38.8199 326.994,42.4866 329,46.5C 331.955,42.7557 334.789,38.9224 337.5,35C 340.882,34.1764 344.216,34.343 347.5,35.5C 343.393,42.1152 339.06,48.6152 334.5,55C 340.325,61.501 344.991,68.6677 348.5,76.5C 345.15,76.665 341.817,76.4983 338.5,76C 335.456,71.4124 332.29,66.9124 329,62.5C 326.676,67.1417 323.843,71.475 320.5,75.5C 317.232,76.487 313.898,76.8204 310.5,76.5C 310.351,75.448 310.517,74.448 311,73.5C 315.39,67.2067 319.89,61.04 324.5,55C 319.587,48.268 314.92,41.4347 310.5,34.5 Z"/></g>
<g><path style="opacity:0.839" fill="#ecedec" d="M 405.5,34.5 C 408.167,34.5 410.833,34.5 413.5,34.5C 413.5,48.5 413.5,62.5 413.5,76.5C 410.833,76.5 408.167,76.5 405.5,76.5C 405.5,62.5 405.5,48.5 405.5,34.5 Z"/></g>
<g><path style="opacity:0.772" fill="#ecedec" d="M 417.5,34.5 C 420.572,34.1826 423.572,34.5159 426.5,35.5C 429.603,45.0413 433.269,54.3747 437.5,63.5C 441.731,54.3747 445.397,45.0413 448.5,35.5C 451.428,34.5159 454.428,34.1826 457.5,34.5C 453.439,49.1862 448.106,63.3529 441.5,77C 435.708,78.9887 431.875,77.1554 430,71.5C 425.253,59.3451 421.087,47.0118 417.5,34.5 Z"/></g>
<g><path style="opacity:0.814" fill="#ecedec" d="M 467.5,34.5 C 474.841,34.3337 482.174,34.5003 489.5,35C 496.234,38.6895 498.234,44.1895 495.5,51.5C 486.22,54.8065 477.554,59.1398 469.5,64.5C 470,65.5 470.5,66.5 471,67.5C 479.415,68.4832 487.915,68.8166 496.5,68.5C 496.5,71.1667 496.5,73.8333 496.5,76.5C 486.828,76.6665 477.161,76.4998 467.5,76C 465.714,75.2155 464.214,74.0488 463,72.5C 461.383,62.2659 461.05,51.9325 462,41.5C 462.938,38.4025 464.772,36.0691 467.5,34.5 Z M 471.5,42.5 C 476.179,42.3342 480.845,42.5008 485.5,43C 486.308,43.3076 486.975,43.8076 487.5,44.5C 482.089,47.7087 476.423,50.7087 470.5,53.5C 469.108,49.6448 469.441,45.9781 471.5,42.5 Z"/></g>
<g><path style="opacity:0.672" fill="#ecedec" d="M 352.5,65.5 C 360.619,65.4687 362.619,68.9687 358.5,76C 349.446,76.7337 347.446,73.2337 352.5,65.5 Z"/></g>
</svg>
