<?xml version="1.0" encoding="UTF-8"?>
<!DOCTYPE svg PUBLIC "-//W3C//DTD SVG 1.1//EN" "http://www.w3.org/Graphics/SVG/1.1/DTD/svg11.dtd">
<svg xmlns="http://www.w3.org/2000/svg" version="1.1" width="178px" height="50px" style="shape-rendering:geometricPrecision; text-rendering:geometricPrecision; image-rendering:optimizeQuality; fill-rule:evenodd; clip-rule:evenodd" xmlns:xlink="http://www.w3.org/1999/xlink">
<g><path style="opacity:1" fill="#564331" d="M 21.5,-0.5 C 27.8333,-0.5 34.1667,-0.5 40.5,-0.5C 39.9423,0.789915 38.9423,1.62325 37.5,2C 44.6486,4.71329 51.6486,7.87995 58.5,11.5C 61.6988,9.18477 62.3655,6.18477 60.5,2.5C 60.9424,1.26133 61.6091,0.261327 62.5,-0.5C 63.1667,-0.5 63.8333,-0.5 64.5,-0.5C 65.1395,6.14769 65.4728,12.8144 65.5,19.5C 60.7845,14.546 58.7845,15.546 59.5,22.5C 58.8333,21.5 58.1667,20.5 57.5,19.5C 57.6633,17.1432 57.4966,14.8098 57,12.5C 55.5557,10.8446 53.7224,10.178 51.5,10.5C 50.5,10.5 49.5,10.5 48.5,10.5C 48.5,9.5 48.5,8.5 48.5,7.5C 43.0877,7.34981 37.7543,6.68314 32.5,5.5C 32.4326,6.95875 32.7659,8.29208 33.5,9.5C 29.367,7.84389 25.367,6.01056 21.5,4C 20.2721,2.50978 20.2721,1.00978 21.5,-0.5 Z"/></g>
<g><path style="opacity:1" fill="#402e20" d="M 9.5,-0.5 C 13.5,-0.5 17.5,-0.5 21.5,-0.5C 20.2721,1.00978 20.2721,2.50978 21.5,4C 25.367,6.01056 29.367,7.84389 33.5,9.5C 35.0481,9.82124 35.7148,10.8212 35.5,12.5C 33.1184,13.3507 31.1184,14.684 29.5,16.5C 29.1667,16.5 28.8333,16.5 28.5,16.5C 25.4841,14.0069 22.4841,14.0069 19.5,16.5C 17.302,16.1201 15.6354,16.7868 14.5,18.5C 13.8333,18.5 13.1667,18.5 12.5,18.5C 12.5,17.5 12.5,16.5 12.5,15.5C 16.2924,15.2736 19.9591,14.4403 23.5,13C 27.297,11.0762 27.4637,8.90951 24,6.5C 21.5263,5.42378 19.0263,4.42378 16.5,3.5C 17.1667,2.83333 17.8333,2.16667 18.5,1.5C 18.1667,1.16667 17.8333,0.833333 17.5,0.5C 15.0089,3.41557 12.0089,4.08223 8.5,2.5C 9.12723,1.58317 9.46056,0.583168 9.5,-0.5 Z"/></g>
<g><path style="opacity:0.877" fill="#4253f4" d="M 104.5,7.5 C 106.167,7.5 107.833,7.5 109.5,7.5C 109.335,11.1817 109.501,14.8484 110,18.5C 112.239,15.038 115.406,13.7046 119.5,14.5C 119.5,12.1667 119.5,9.83333 119.5,7.5C 121.5,7.5 123.5,7.5 125.5,7.5C 125.192,9.92397 125.526,12.2573 126.5,14.5C 130.447,13.2209 133.28,14.5543 135,18.5C 136.566,15.1874 139.233,13.5208 143,13.5C 145.406,13.7029 147.406,14.7029 149,16.5C 150.77,14.5819 152.937,14.0819 155.5,15C 156.126,15.7504 156.626,16.5838 157,17.5C 159.253,14.6202 162.086,13.9535 165.5,15.5C 163.774,17.2279 162.441,19.2279 161.5,21.5C 163.226,23.2279 164.559,25.2279 165.5,27.5C 161.585,29.3824 158.752,28.3824 157,24.5C 156.473,27.2276 154.806,28.561 152,28.5C 148.853,27.3144 145.686,27.3144 142.5,28.5C 139.209,28.7205 136.709,27.3872 135,24.5C 134.535,25.9308 133.701,27.0975 132.5,28C 127.871,27.8416 123.371,28.0083 119,28.5C 114.918,28.9604 112.252,27.2937 111,23.5C 109.731,24.9047 109.231,26.5714 109.5,28.5C 107.833,28.5 106.167,28.5 104.5,28.5C 104.5,21.5 104.5,14.5 104.5,7.5 Z M 118.5,16.5 C 119.638,19.3035 119.805,22.3035 119,25.5C 117.954,23.9095 116.787,22.4095 115.5,21C 117.141,19.871 118.141,18.371 118.5,16.5 Z M 125.5,18.5 C 129.92,19.0898 130.586,21.0898 127.5,24.5C 125.717,22.9775 125.051,20.9775 125.5,18.5 Z M 141.5,18.5 C 142.5,18.5 143.5,18.5 144.5,18.5C 144.949,20.9775 144.283,22.9775 142.5,24.5C 140.454,22.719 140.12,20.719 141.5,18.5 Z M 150.5,24.5 C 150.338,22.4727 150.505,20.4727 151,18.5C 153.871,20.5504 153.704,22.5504 150.5,24.5 Z"/></g>
<g><path style="opacity:1" fill="#413329" d="M -0.5,-0.5 C 1.16667,-0.5 2.83333,-0.5 4.5,-0.5C 4.17876,1.04814 3.17876,1.71481 1.5,1.5C 1.3632,6.19399 3.69654,8.36066 8.5,8C 11.0414,9.84836 12.0414,12.3484 11.5,15.5C 8.72793,16.2345 6.06126,16.4012 3.5,16C 2.79336,18.5197 1.96003,21.0197 1,23.5C 0.721579,22.5842 0.221579,21.9175 -0.5,21.5C -0.5,14.1667 -0.5,6.83333 -0.5,-0.5 Z"/></g>
<g><path style="opacity:1" fill="#755c48" d="M 51.5,10.5 C 50.5514,11.1524 49.3847,11.4857 48,11.5C 43.5135,8.63641 39.3469,8.96974 35.5,12.5C 35.7148,10.8212 35.0481,9.82124 33.5,9.5C 32.7659,8.29208 32.4326,6.95875 32.5,5.5C 37.7543,6.68314 43.0877,7.34981 48.5,7.5C 48.5,8.5 48.5,9.5 48.5,10.5C 49.5,10.5 50.5,10.5 51.5,10.5 Z"/></g>
<g><path style="opacity:1" fill="#372516" d="M 40.5,-0.5 C 41.5,-0.5 42.5,-0.5 43.5,-0.5C 43.8212,1.04814 44.8212,1.71481 46.5,1.5C 46.33,2.82207 46.6634,3.98873 47.5,5C 51.5557,7.07215 55.889,8.23882 60.5,8.5C 59.4473,5.39294 58.114,2.39294 56.5,-0.5C 58.5,-0.5 60.5,-0.5 62.5,-0.5C 61.6091,0.261327 60.9424,1.26133 60.5,2.5C 62.3655,6.18477 61.6988,9.18477 58.5,11.5C 51.6486,7.87995 44.6486,4.71329 37.5,2C 38.9423,1.62325 39.9423,0.789915 40.5,-0.5 Z"/></g>
<g><path style="opacity:1" fill="#27160a" d="M 43.5,-0.5 C 47.8333,-0.5 52.1667,-0.5 56.5,-0.5C 58.114,2.39294 59.4473,5.39294 60.5,8.5C 55.889,8.23882 51.5557,7.07215 47.5,5C 46.6634,3.98873 46.33,2.82207 46.5,1.5C 44.8212,1.71481 43.8212,1.04814 43.5,-0.5 Z"/></g>
<g><path style="opacity:0.644" fill="#4254f4" d="M 67.5,8.5 C 69.5,8.5 71.5,8.5 73.5,8.5C 73.5,10.1667 73.5,11.8333 73.5,13.5C 71.5,13.5 69.5,13.5 67.5,13.5C 67.5,11.8333 67.5,10.1667 67.5,8.5 Z"/></g>
<g><path style="opacity:1" fill="#a37c64" d="M 51.5,10.5 C 53.7224,10.178 55.5557,10.8446 57,12.5C 57.4966,14.8098 57.6633,17.1432 57.5,19.5C 57.5,20.5 57.5,21.5 57.5,22.5C 55.1667,22.5 52.8333,22.5 50.5,22.5C 51.9187,21.5489 53.5853,21.2155 55.5,21.5C 55.5,18.5 55.5,15.5 55.5,12.5C 51.1667,12.5 46.8333,12.5 42.5,12.5C 40.5453,11.0698 38.8786,11.4031 37.5,13.5C 34.8333,14.5 32.1667,15.5 29.5,16.5C 31.1184,14.684 33.1184,13.3507 35.5,12.5C 39.3469,8.96974 43.5135,8.63641 48,11.5C 49.3847,11.4857 50.5514,11.1524 51.5,10.5 Z"/></g>
<g><path style="opacity:1" fill="#e9b99e" d="M 42.5,12.5 C 45.2727,13.6572 48.2727,14.3239 51.5,14.5C 50.7493,19.6286 47.7493,21.9619 42.5,21.5C 37.1457,22.7779 31.8124,22.6112 26.5,21C 29.4893,17.8385 33.1559,16.3385 37.5,16.5C 37.5,15.5 37.5,14.5 37.5,13.5C 38.8786,11.4031 40.5453,11.0698 42.5,12.5 Z"/></g>
<g><path style="opacity:0.853" fill="#4254f4" d="M 78.5,13.5 C 83.1524,12.984 86.6524,14.6507 89,18.5C 92.9135,12.8577 97.5802,12.1911 103,16.5C 103.49,17.7932 103.657,19.1266 103.5,20.5C 100.856,20.8399 98.5225,20.1733 96.5,18.5C 93.8333,20.5 93.8333,22.5 96.5,24.5C 98.5225,22.8267 100.856,22.1601 103.5,22.5C 104.035,25.2385 103.035,27.0718 100.5,28C 96.7559,28.9285 93.2559,28.4285 90,26.5C 89.1612,27.6241 87.9945,28.2908 86.5,28.5C 84.0525,27.3995 81.5525,27.3995 79,28.5C 76.9658,28.6464 75.2991,27.9797 74,26.5C 73.3074,33.4237 69.8074,35.5904 63.5,33C 64.3366,31.9887 64.67,30.8221 64.5,29.5C 65.5,29.5 66.5,29.5 67.5,29.5C 67.5,24.5 67.5,19.5 67.5,14.5C 69.5,14.5 71.5,14.5 73.5,14.5C 73.3359,17.1873 73.5026,19.854 74,22.5C 74.5,22 75,21.5 75.5,21C 73.6124,17.1863 74.6124,14.6863 78.5,13.5 Z M 80.5,22.5 C 82.9752,22.7467 82.9752,23.4134 80.5,24.5C 79.537,24.0302 79.537,23.3635 80.5,22.5 Z"/></g>
<g><path style="opacity:1" fill="#82614c" d="M 28.5,16.5 C 27.4324,17.4345 26.099,17.7678 24.5,17.5C 23.0813,16.5489 21.4147,16.2155 19.5,16.5C 22.4841,14.0069 25.4841,14.0069 28.5,16.5 Z"/></g>
<g><path style="opacity:1" fill="#302219" d="M 4.5,-0.5 C 6.16667,-0.5 7.83333,-0.5 9.5,-0.5C 9.46056,0.583168 9.12723,1.58317 8.5,2.5C 12.0089,4.08223 15.0089,3.41557 17.5,0.5C 17.8333,0.833333 18.1667,1.16667 18.5,1.5C 17.8333,2.16667 17.1667,2.83333 16.5,3.5C 19.0263,4.42378 21.5263,5.42378 24,6.5C 27.4637,8.90951 27.297,11.0762 23.5,13C 19.9591,14.4403 16.2924,15.2736 12.5,15.5C 12.5,16.5 12.5,17.5 12.5,18.5C 8.686,18.6509 7.01934,20.6509 7.5,24.5C 6.83472,26.6979 6.16805,29.0312 5.5,31.5C 4.2724,29.8241 2.93906,29.4908 1.5,30.5C 0.833333,29.5 0.166667,28.5 -0.5,27.5C -0.5,25.5 -0.5,23.5 -0.5,21.5C 0.221579,21.9175 0.721579,22.5842 1,23.5C 1.96003,21.0197 2.79336,18.5197 3.5,16C 6.06126,16.4012 8.72793,16.2345 11.5,15.5C 12.0414,12.3484 11.0414,9.84836 8.5,8C 3.69654,8.36066 1.3632,6.19399 1.5,1.5C 3.17876,1.71481 4.17876,1.04814 4.5,-0.5 Z"/></g>
<g><path style="opacity:1" fill="#d0a48b" d="M 42.5,12.5 C 46.8333,12.5 51.1667,12.5 55.5,12.5C 55.5,15.5 55.5,18.5 55.5,21.5C 53.5853,21.2155 51.9187,21.5489 50.5,22.5C 47.2869,22.19 44.2869,22.5233 41.5,23.5C 36.5411,24.3163 31.5411,24.3163 26.5,23.5C 24.1667,23.5 21.8333,23.5 19.5,23.5C 18.3998,22.4415 17.0664,21.6082 15.5,21C 17.8945,18.4761 20.8945,17.3094 24.5,17.5C 26.099,17.7678 27.4324,17.4345 28.5,16.5C 28.8333,16.5 29.1667,16.5 29.5,16.5C 32.1667,15.5 34.8333,14.5 37.5,13.5C 37.5,14.5 37.5,15.5 37.5,16.5C 33.1559,16.3385 29.4893,17.8385 26.5,21C 31.8124,22.6112 37.1457,22.7779 42.5,21.5C 47.7493,21.9619 50.7493,19.6286 51.5,14.5C 48.2727,14.3239 45.2727,13.6572 42.5,12.5 Z"/></g>
<g><path style="opacity:1" fill="#69584e" d="M 12.5,18.5 C 13.1667,18.5 13.8333,18.5 14.5,18.5C 13.158,19.793 11.4913,20.6264 9.5,21C 8.9152,22.3024 8.24853,23.469 7.5,24.5C 7.01934,20.6509 8.686,18.6509 12.5,18.5 Z"/></g>
<g><path style="opacity:1" fill="#271d15" d="M 65.5,19.5 C 65.3239,22.7273 64.6572,25.7273 63.5,28.5C 62.1667,27.8333 60.8333,27.1667 59.5,26.5C 59.5,25.1667 59.5,23.8333 59.5,22.5C 58.7845,15.546 60.7845,14.546 65.5,19.5 Z"/></g>
<g><path style="opacity:1" fill="#9b8176" d="M 19.5,16.5 C 21.4147,16.2155 23.0813,16.5489 24.5,17.5C 20.8945,17.3094 17.8945,18.4761 15.5,21C 17.0664,21.6082 18.3998,22.4415 19.5,23.5C 16.5525,23.2229 13.7191,23.5562 11,24.5C 9.80255,28.7716 11.3026,31.4383 15.5,32.5C 16.4164,32.4573 17.0831,32.1239 17.5,31.5C 17.7107,29.5759 18.3774,29.2426 19.5,30.5C 20.287,32.1042 21.6203,32.7709 23.5,32.5C 26.8045,33.4066 27.1378,34.9066 24.5,37C 22.1902,37.4966 19.8568,37.6633 17.5,37.5C 15.2728,35.2693 12.6061,33.936 9.5,33.5C 9.96286,36.4824 10.2962,39.4824 10.5,42.5C 11.5,42.5 12.5,42.5 13.5,42.5C 13.767,44.9653 14.4336,47.2986 15.5,49.5C 13.1667,49.5 10.8333,49.5 8.5,49.5C 7.83333,48.1667 7.16667,46.8333 6.5,45.5C 5.99194,42.8239 5.82527,40.1572 6,37.5C 6.33333,37.8333 6.66667,38.1667 7,38.5C 7.49915,33.8452 7.66582,29.1785 7.5,24.5C 8.24853,23.469 8.9152,22.3024 9.5,21C 11.4913,20.6264 13.158,19.793 14.5,18.5C 15.6354,16.7868 17.302,16.1201 19.5,16.5 Z"/></g>
<g><path style="opacity:1" fill="#7f675d" d="M 19.5,23.5 C 21.8333,23.5 24.1667,23.5 26.5,23.5C 26.5,23.8333 26.5,24.1667 26.5,24.5C 23.8127,24.3359 21.146,24.5026 18.5,25C 19.1667,25.6667 19.8333,26.3333 20.5,27C 18.0031,27.4117 16.0031,28.5784 14.5,30.5C 15.325,31.3857 16.325,31.719 17.5,31.5C 17.0831,32.1239 16.4164,32.4573 15.5,32.5C 11.3026,31.4383 9.80255,28.7716 11,24.5C 13.7191,23.5562 16.5525,23.2229 19.5,23.5 Z"/></g>
<g><path style="opacity:1" fill="#876651" d="M 57.5,19.5 C 58.1667,20.5 58.8333,21.5 59.5,22.5C 59.5,23.8333 59.5,25.1667 59.5,26.5C 59.5,27.1667 59.5,27.8333 59.5,28.5C 56.9474,27.3489 55.6141,28.3489 55.5,31.5C 54.0695,31.4208 52.7362,31.7542 51.5,32.5C 50.6143,31.675 50.281,30.675 50.5,29.5C 47.9671,32.0274 45.4671,32.0274 43,29.5C 41.2933,30.1383 39.46,30.1383 37.5,29.5C 37.238,28.0222 37.5713,26.6888 38.5,25.5C 39.7387,25.0576 40.7387,24.3909 41.5,23.5C 44.2869,22.5233 47.2869,22.19 50.5,22.5C 52.8333,22.5 55.1667,22.5 57.5,22.5C 57.5,21.5 57.5,20.5 57.5,19.5 Z"/></g>
<g><path style="opacity:1" fill="#af8470" d="M 26.5,24.5 C 26.5,24.1667 26.5,23.8333 26.5,23.5C 31.5411,24.3163 36.5411,24.3163 41.5,23.5C 40.7387,24.3909 39.7387,25.0576 38.5,25.5C 37.5713,26.6888 37.238,28.0222 37.5,29.5C 39.46,30.1383 41.2933,30.1383 43,29.5C 45.4671,32.0274 47.9671,32.0274 50.5,29.5C 50.281,30.675 50.6143,31.675 51.5,32.5C 52.7362,31.7542 54.0695,31.4208 55.5,31.5C 52.1063,35.4656 47.7729,36.9656 42.5,36C 41.944,35.6174 41.6107,35.1174 41.5,34.5C 41.5,33.5 41.5,32.5 41.5,31.5C 39.8333,31.5 38.1667,31.5 36.5,31.5C 36.728,29.6453 36.0613,28.8119 34.5,29C 32.8446,30.4443 32.178,32.2776 32.5,34.5C 31.7321,35.2625 31.2321,36.2625 31,37.5C 30.6807,34.495 29.1807,32.495 26.5,31.5C 27.8333,31.5 29.1667,31.5 30.5,31.5C 31.3201,27.7779 29.9868,25.4446 26.5,24.5 Z"/></g>
<g><path style="opacity:1" fill="#5a4133" d="M 50.5,29.5 C 48.7697,28.0882 47.2697,28.4215 46,30.5C 40.6969,25.6172 41.5302,23.4505 48.5,24C 47.8333,24.6667 47.1667,25.3333 46.5,26C 48.8127,26.662 51.146,27.162 53.5,27.5C 53.5983,30.2476 52.5983,30.9143 50.5,29.5 Z"/></g>
<g><path style="opacity:1" fill="#523b2e" d="M 26.5,24.5 C 27.9418,25.8195 28.6085,27.4862 28.5,29.5C 25.4552,29.5079 22.4552,29.8413 19.5,30.5C 18.3774,29.2426 17.7107,29.5759 17.5,31.5C 16.325,31.719 15.325,31.3857 14.5,30.5C 16.0031,28.5784 18.0031,27.4117 20.5,27C 19.8333,26.3333 19.1667,25.6667 18.5,25C 21.146,24.5026 23.8127,24.3359 26.5,24.5 Z"/></g>
<g><path style="opacity:1" fill="#705445" d="M 26.5,24.5 C 29.9868,25.4446 31.3201,27.7779 30.5,31.5C 29.1667,31.5 27.8333,31.5 26.5,31.5C 25.0527,30.1148 24.0527,30.4482 23.5,32.5C 21.6203,32.7709 20.287,32.1042 19.5,30.5C 22.4552,29.8413 25.4552,29.5079 28.5,29.5C 28.6085,27.4862 27.9418,25.8195 26.5,24.5 Z"/></g>
<g><path style="opacity:0.776" fill="#4253f4" d="M 166.5,28.5 C 168.665,28.1159 170.332,28.7826 171.5,30.5C 170.009,32.0116 168.176,33.0116 166,33.5C 165.749,35.433 165.249,37.2663 164.5,39C 157.719,39.2603 151.052,39.2603 144.5,39C 143.848,36.9095 143.681,34.7429 144,32.5C 142.868,34.3392 142.035,36.3392 141.5,38.5C 140.675,39.3857 139.675,39.719 138.5,39.5C 138.705,36.8857 138.705,34.5524 138.5,32.5C 137.056,34.6079 136.39,36.9412 136.5,39.5C 131.767,39.7768 127.1,39.4435 122.5,38.5C 121.149,42.3422 118.482,43.8422 114.5,43C 113.484,42.4806 112.818,41.6473 112.5,40.5C 113.552,38.7766 113.552,37.1099 112.5,35.5C 113.034,33.3855 114.034,31.5522 115.5,30C 126.011,29.6077 136.677,29.6077 147.5,30C 148,30.5 148.5,31 149,31.5C 150.126,30.0564 151.626,29.3898 153.5,29.5C 157.668,29.599 161.835,29.9323 166,30.5C 166.464,29.9056 166.631,29.2389 166.5,28.5 Z M 117.5,32.5 C 118.376,32.3691 119.043,32.7025 119.5,33.5C 118.86,36.6478 117.86,36.9812 116.5,34.5C 116.863,33.8165 117.196,33.1499 117.5,32.5 Z M 126.5,32.5 C 128.97,33.3603 129.137,34.6936 127,36.5C 126.51,35.2068 126.343,33.8734 126.5,32.5 Z M 132.5,32.5 C 133.782,33.7082 133.782,35.0416 132.5,36.5C 131.708,35.3002 131.708,33.9669 132.5,32.5 Z"/></g>
<g><path style="opacity:1" fill="#574538" d="M 59.5,26.5 C 60.8333,27.1667 62.1667,27.8333 63.5,28.5C 62.49,31.928 61.49,35.2613 60.5,38.5C 60.7373,37.209 60.404,36.209 59.5,35.5C 59.5,33.1667 59.5,30.8333 59.5,28.5C 59.5,27.8333 59.5,27.1667 59.5,26.5 Z"/></g>
<g><path style="opacity:1" fill="#66504b" d="M 7.5,24.5 C 7.66582,29.1785 7.49915,33.8452 7,38.5C 6.66667,38.1667 6.33333,37.8333 6,37.5C 5.82527,40.1572 5.99194,42.8239 6.5,45.5C 4.26132,40.7841 2.59465,35.7841 1.5,30.5C 2.93906,29.4908 4.2724,29.8241 5.5,31.5C 6.16805,29.0312 6.83472,26.6979 7.5,24.5 Z"/></g>
<g><path style="opacity:1" fill="#c49e91" d="M 17.5,37.5 C 19.7985,41.2465 20.1319,45.2465 18.5,49.5C 17.5,49.5 16.5,49.5 15.5,49.5C 14.4336,47.2986 13.767,44.9653 13.5,42.5C 12.5,42.5 11.5,42.5 10.5,42.5C 10.2962,39.4824 9.96286,36.4824 9.5,33.5C 12.6061,33.936 15.2728,35.2693 17.5,37.5 Z"/></g>
<g><path style="opacity:0.98" fill="#806658" d="M 59.5,35.5 C 60.404,36.209 60.7373,37.209 60.5,38.5C 59.9922,42.1974 59.3255,45.8641 58.5,49.5C 58.1667,49.5 57.8333,49.5 57.5,49.5C 57.2259,44.6077 57.8926,39.941 59.5,35.5 Z"/></g>
<g><path style="opacity:1" fill="#c29381" d="M 26.5,31.5 C 29.1807,32.495 30.6807,34.495 31,37.5C 31.2321,36.2625 31.7321,35.2625 32.5,34.5C 32.6159,37.8599 32.9492,41.1933 33.5,44.5C 32.5,44.5 31.5,44.5 30.5,44.5C 30.762,43.0222 30.4287,41.6888 29.5,40.5C 26.4529,41.8751 25.1196,44.2084 25.5,47.5C 25.5,48.1667 25.5,48.8333 25.5,49.5C 23.1667,49.5 20.8333,49.5 18.5,49.5C 20.1319,45.2465 19.7985,41.2465 17.5,37.5C 19.8568,37.6633 22.1902,37.4966 24.5,37C 27.1378,34.9066 26.8045,33.4066 23.5,32.5C 24.0527,30.4482 25.0527,30.1148 26.5,31.5 Z"/></g>
<g><path style="opacity:1" fill="#d6a589" d="M 55.5,31.5 C 56.7251,32.1522 57.3917,33.3189 57.5,35C 57.5564,38.3956 56.2231,40.8956 53.5,42.5C 52.735,43.6602 51.735,44.6602 50.5,45.5C 47.9464,44.0755 45.2798,42.9088 42.5,42C 41.2135,39.9777 40.2135,37.8111 39.5,35.5C 39.9569,34.7025 40.6236,34.3691 41.5,34.5C 41.6107,35.1174 41.944,35.6174 42.5,36C 47.7729,36.9656 52.1063,35.4656 55.5,31.5 Z"/></g>
<g><path style="opacity:1" fill="#a2766a" d="M 33.5,44.5 C 36.3121,44.7669 38.6455,45.7669 40.5,47.5C 35.5,47.5 30.5,47.5 25.5,47.5C 25.1196,44.2084 26.4529,41.8751 29.5,40.5C 30.4287,41.6888 30.762,43.0222 30.5,44.5C 31.5,44.5 32.5,44.5 33.5,44.5 Z"/></g>
<g><path style="opacity:1" fill="#b48c72" d="M 59.5,28.5 C 59.5,30.8333 59.5,33.1667 59.5,35.5C 57.8926,39.941 57.2259,44.6077 57.5,49.5C 56.1667,49.5 54.8333,49.5 53.5,49.5C 53.5,47.1667 53.5,44.8333 53.5,42.5C 56.2231,40.8956 57.5564,38.3956 57.5,35C 57.3917,33.3189 56.7251,32.1522 55.5,31.5C 55.6141,28.3489 56.9474,27.3489 59.5,28.5 Z"/></g>
<g><path style="opacity:1" fill="#cc957b" d="M 41.5,34.5 C 40.6236,34.3691 39.9569,34.7025 39.5,35.5C 40.2135,37.8111 41.2135,39.9777 42.5,42C 45.2798,42.9088 47.9464,44.0755 50.5,45.5C 51.735,44.6602 52.735,43.6602 53.5,42.5C 53.5,44.8333 53.5,47.1667 53.5,49.5C 49.5,49.5 45.5,49.5 41.5,49.5C 41.6716,48.5084 41.3382,47.8417 40.5,47.5C 38.6455,45.7669 36.3121,44.7669 33.5,44.5C 32.9492,41.1933 32.6159,37.8599 32.5,34.5C 32.178,32.2776 32.8446,30.4443 34.5,29C 36.0613,28.8119 36.728,29.6453 36.5,31.5C 38.1667,31.5 39.8333,31.5 41.5,31.5C 41.5,32.5 41.5,33.5 41.5,34.5 Z"/></g>
<g><path style="opacity:1" fill="#644238" d="M 25.5,47.5 C 30.5,47.5 35.5,47.5 40.5,47.5C 41.3382,47.8417 41.6716,48.5084 41.5,49.5C 36.1667,49.5 30.8333,49.5 25.5,49.5C 25.5,48.8333 25.5,48.1667 25.5,47.5 Z"/></g>
</svg>
