<svg xmlns="http://www.w3.org/2000/svg" viewBox="0 0 512 335.45"><defs><style>.a{fill:#f5f5f5}.b{fill:#ff4b55}</style></defs><path class="a" d="M503.17 335.45H8.83A8.83 8.83 0 0 1 0 326.62V8.82A8.83 8.83 0 0 1 8.83 0h494.34A8.83 8.83 0 0 1 512 8.82v317.8a8.83 8.83 0 0 1-8.83 8.83z"/><path class="b" d="M512 25.8H0V8.82A8.83 8.83 0 0 1 8.83 0h494.34A8.83 8.83 0 0 1 512 8.82v17zM0 103.22h512v25.8H0zM0 51.61h512v25.8H0zM512 180.62H8.83A8.83 8.83 0 0 1 0 171.8v-17h512zM0 258.05h512v25.8H0zM503.17 335.45H8.83A8.83 8.83 0 0 1 0 326.62v-17h512v17a8.83 8.83 0 0 1-8.83 8.83zM0 206.44h512v25.8H0z"/><path d="M229.52 0H8.83A8.83 8.83 0 0 0 0 8.82v163a8.83 8.83 0 0 0 8.83 8.83h220.69a8.83 8.83 0 0 0 8.83-8.83v-163A8.83 8.83 0 0 0 229.52 0z" fill="#41479b"/><path class="a" d="M24.79 20.26l2 5.86h6.18a.83.83 0 0 1 .49 1.5l-5 3.67 1.86 5.89a.83.83 0 0 1-1.28.93l-5-3.59-5 3.59a.83.83 0 0 1-1.28-.93l1.86-5.89-5-3.67a.83.83 0 0 1 .49-1.5h6.18l2-5.86a.83.83 0 0 1 1.5 0zM24.79 50.91l2 5.86h6.18a.83.83 0 0 1 .49 1.5l-5 3.67 1.86 5.89a.83.83 0 0 1-1.28.93L24 65.22l-5 3.59a.83.83 0 0 1-1.28-.93l1.86-5.89-5-3.67a.83.83 0 0 1 .49-1.5h6.18l2-5.86a.83.83 0 0 1 1.54-.05zM24.79 81.57l2 5.86h6.18a.83.83 0 0 1 .49 1.5l-5 3.67 1.86 5.89a.83.83 0 0 1-1.28.93l-5-3.59-5 3.59a.83.83 0 0 1-1.28-.93l1.86-5.89-5-3.67a.83.83 0 0 1 .49-1.5h6.18l2-5.86a.83.83 0 0 1 1.5 0zM24.79 112.22l2 5.86h6.18a.83.83 0 0 1 .49 1.5l-5 3.67 1.86 5.89a.83.83 0 0 1-1.28.93l-5-3.59-5 3.59a.83.83 0 0 1-1.28-.93l1.86-5.89-5-3.67a.83.83 0 0 1 .49-1.5h6.18l2-5.86a.83.83 0 0 1 1.5 0zM24.79 142.87l2 5.86h6.18a.83.83 0 0 1 .49 1.5l-5 3.67 1.86 5.89a.83.83 0 0 1-1.28.93l-5-3.59-5 3.59a.83.83 0 0 1-1.28-.93l1.86-5.89-5-3.67a.83.83 0 0 1 .49-1.5h6.18l2-5.86a.83.83 0 0 1 1.5 0zM48.58 35.29l2 5.86h6.18a.83.83 0 0 1 .44 1.57l-5 3.67 1.86 5.89a.83.83 0 0 1-1.28.93l-5-3.59-5 3.59a.83.83 0 0 1-1.28-.93l1.86-5.89-5-3.67a.83.83 0 0 1 .49-1.5h6.18l2-5.86a.83.83 0 0 1 1.55-.07zM48.58 65.94l2 5.86h6.18a.83.83 0 0 1 .49 1.5l-5 3.67 1.86 5.89a.83.83 0 0 1-1.28.93l-5-3.59-5 3.59a.83.83 0 0 1-1.28-.93l1.86-5.89-5-3.67a.83.83 0 0 1 .49-1.5h6.18l2-5.86a.83.83 0 0 1 1.5 0zM48.58 96.6l2 5.86h6.18a.83.83 0 0 1 .49 1.5l-5 3.67 1.86 5.89a.83.83 0 0 1-1.28.93l-5-3.59-5 3.59a.83.83 0 0 1-1.28-.93l1.8-5.8-5-3.67a.83.83 0 0 1 .49-1.5h6.18l2-5.86a.83.83 0 0 1 1.56-.09zM48.58 127.25l2 5.86h6.18a.83.83 0 0 1 .49 1.5l-5 3.67 1.86 5.89a.83.83 0 0 1-1.28.93l-5-3.59-5 3.59a.83.83 0 0 1-1.28-.93l1.86-5.89-5-3.67a.83.83 0 0 1 .49-1.5h6.18l2-5.86a.83.83 0 0 1 1.5 0zM72.38 20.26l2 5.86h6.18a.83.83 0 0 1 .49 1.5l-5 3.67 1.86 5.89a.83.83 0 0 1-1.28.93l-5-3.59-5 3.59a.83.83 0 0 1-1.28-.93l1.86-5.89-5-3.67a.83.83 0 0 1 .49-1.5h6.18l2-5.86a.83.83 0 0 1 1.5 0zM72.38 50.91l2 5.86h6.18a.83.83 0 0 1 .44 1.55l-5 3.67 1.86 5.89a.83.83 0 0 1-1.28.93l-5-3.59-5 3.59a.83.83 0 0 1-1.28-.93l1.86-5.89-5-3.67a.83.83 0 0 1 .49-1.5h6.18l2-5.86a.83.83 0 0 1 1.55-.05zM72.38 81.57l2 5.86h6.18a.83.83 0 0 1 .49 1.5l-5 3.67 1.86 5.89a.83.83 0 0 1-1.28.93l-5-3.59-5 3.59a.83.83 0 0 1-1.28-.93l1.86-5.89-5-3.67a.83.83 0 0 1 .49-1.5h6.18l2-5.86a.83.83 0 0 1 1.5 0zM72.38 112.22l2 5.86h6.18a.83.83 0 0 1 .49 1.5l-5 3.67 1.86 5.89a.83.83 0 0 1-1.28.93l-5-3.59-5 3.59a.83.83 0 0 1-1.28-.93l1.86-5.89-5-3.67a.83.83 0 0 1 .49-1.5h6.18l2-5.86a.83.83 0 0 1 1.5 0zM72.38 142.87l2 5.86h6.18a.83.83 0 0 1 .49 1.5l-5 3.67 1.86 5.89a.83.83 0 0 1-1.28.93l-5-3.59-5 3.59a.83.83 0 0 1-1.28-.93l1.86-5.89-5-3.67a.83.83 0 0 1 .49-1.5h6.18l2-5.86a.83.83 0 0 1 1.5 0zM96.17 35.29l2 5.86h6.18a.83.83 0 0 1 .49 1.5l-5 3.67 1.86 5.89a.83.83 0 0 1-1.28.93l-5-3.59-5 3.59a.83.83 0 0 1-1.28-.93L91 46.32l-5-3.6a.83.83 0 0 1 .49-1.5h6.18l2-5.86a.83.83 0 0 1 1.5-.07zM96.17 65.94l2 5.86h6.18a.83.83 0 0 1 .49 1.5l-5 3.67 1.86 5.89a.83.83 0 0 1-1.28.93l-5-3.59-5 3.59a.83.83 0 0 1-1.28-.93L91 76.97l-5-3.67a.83.83 0 0 1 .49-1.5h6.18l2-5.86a.83.83 0 0 1 1.5 0zM96.17 96.6l2 5.86h6.18a.83.83 0 0 1 .49 1.5l-5 3.67 1.86 5.89a.83.83 0 0 1-1.28.93l-5-3.59-5 3.59a.83.83 0 0 1-1.28-.93l1.8-5.8-5-3.67a.83.83 0 0 1 .49-1.5h6.18l2-5.86a.83.83 0 0 1 1.56-.09zM96.17 127.25l2 5.86h6.18a.83.83 0 0 1 .49 1.5l-5 3.67 1.86 5.89a.83.83 0 0 1-1.28.93l-5-3.59-5 3.59a.83.83 0 0 1-1.28-.93l1.86-5.89-5-3.67a.83.83 0 0 1 .49-1.5h6.18l2-5.86a.83.83 0 0 1 1.5 0zM120 20.26l2 5.86h6.18a.83.83 0 0 1 .49 1.5l-5 3.67 1.86 5.89a.83.83 0 0 1-1.28.93l-5-3.59-5 3.59a.83.83 0 0 1-1.28-.93l1.86-5.89-5-3.67a.83.83 0 0 1 .49-1.5h6.18l2-5.86a.83.83 0 0 1 1.5 0zM120 50.91l2 5.86h6.18a.83.83 0 0 1 .49 1.5l-5 3.67 1.86 5.89a.83.83 0 0 1-1.28.93l-5-3.59-5 3.59a.83.83 0 0 1-1.28-.93l1.86-5.89-5-3.67a.83.83 0 0 1 .49-1.5h6.18l2-5.86a.83.83 0 0 1 1.5 0zM120 81.57l2 5.86h6.18a.83.83 0 0 1 .49 1.5l-5 3.67 1.86 5.89a.83.83 0 0 1-1.28.93l-5-3.59-5 3.59a.83.83 0 0 1-1.28-.93l1.86-5.89-5-3.67a.83.83 0 0 1 .49-1.5h6.18l2-5.86a.83.83 0 0 1 1.5 0zM120 112.22l2 5.86h6.18a.83.83 0 0 1 .49 1.5l-5 3.67 1.86 5.89a.83.83 0 0 1-1.28.93l-5-3.59-5 3.59a.83.83 0 0 1-1.28-.93l1.86-5.89-5-3.67a.83.83 0 0 1 .49-1.5h6.18l2-5.86a.83.83 0 0 1 1.5 0zM120 142.87l2 5.86h6.18a.83.83 0 0 1 .49 1.5l-5 3.67 1.86 5.89a.83.83 0 0 1-1.28.93l-5-3.59-5 3.59a.83.83 0 0 1-1.28-.93l1.86-5.89-5-3.67a.83.83 0 0 1 .49-1.5h6.18l2-5.86a.83.83 0 0 1 1.5 0zM143.76 35.29l2 5.86h6.18a.83.83 0 0 1 .49 1.5l-5 3.67 1.86 5.89a.83.83 0 0 1-1.28.93l-5-3.59-5 3.59a.83.83 0 0 1-1.28-.93l1.86-5.89-5-3.67a.83.83 0 0 1 .49-1.5h6.18l2-5.86a.83.83 0 0 1 1.5 0zM143.76 65.94l2 5.86h6.18a.83.83 0 0 1 .49 1.5l-5 3.67 1.86 5.89a.83.83 0 0 1-1.28.93l-5-3.59-5 3.59a.83.83 0 0 1-1.28-.93l1.86-5.89-5-3.67a.83.83 0 0 1 .49-1.5h6.18l2-5.86a.83.83 0 0 1 1.5 0zM143.76 96.6l2 5.86h6.18a.83.83 0 0 1 .49 1.5l-5 3.67 1.86 5.89a.83.83 0 0 1-1.28.93l-5-3.59-5 3.59a.83.83 0 0 1-1.28-.93l1.86-5.89-5-3.67a.83.83 0 0 1 .49-1.5h6.18l2-5.86a.83.83 0 0 1 1.5 0zM143.76 127.25l2 5.86h6.18a.83.83 0 0 1 .49 1.5l-5 3.67 1.86 5.89a.83.83 0 0 1-1.28.93l-5-3.59-5 3.59a.83.83 0 0 1-1.28-.93l1.86-5.89-5-3.67a.83.83 0 0 1 .49-1.5h6.18l2-5.86a.83.83 0 0 1 1.5 0zM167.55 20.26l2 5.86h6.18a.83.83 0 0 1 .49 1.5l-5 3.67 1.86 5.89a.83.83 0 0 1-1.28.93l-5-3.59-5 3.59a.83.83 0 0 1-1.28-.93l1.86-5.89-5-3.67a.83.83 0 0 1 .49-1.5h6.18l2-5.86a.83.83 0 0 1 1.5 0zM167.55 50.91l2 5.86h6.18a.83.83 0 0 1 .49 1.5l-5 3.67 1.86 5.89a.83.83 0 0 1-1.28.93l-5-3.59-5 3.59a.83.83 0 0 1-1.28-.93l1.86-5.89-5-3.67a.83.83 0 0 1 .49-1.5h6.18l2-5.86a.83.83 0 0 1 1.5 0zM167.55 81.57l2 5.86h6.18a.83.83 0 0 1 .49 1.5l-5 3.67 1.86 5.89a.83.83 0 0 1-1.28.93l-5-3.59-5 3.59a.83.83 0 0 1-1.28-.93l1.86-5.89-5-3.67a.83.83 0 0 1 .49-1.5h6.18l2-5.86a.83.83 0 0 1 1.5 0zM167.55 112.22l2 5.86h6.18a.83.83 0 0 1 .49 1.5l-5 3.67 1.86 5.89a.83.83 0 0 1-1.28.93l-5-3.59-5 3.59a.83.83 0 0 1-1.28-.93l1.86-5.89-5-3.67a.83.83 0 0 1 .49-1.5h6.18l2-5.86a.83.83 0 0 1 1.5 0zM167.55 142.87l2 5.86h6.18a.83.83 0 0 1 .49 1.5l-5 3.67 1.86 5.89a.83.83 0 0 1-1.28.93l-5-3.59-5 3.59a.83.83 0 0 1-1.28-.93l1.86-5.89-5-3.67a.83.83 0 0 1 .49-1.5h6.18l2-5.86a.83.83 0 0 1 1.5 0zM191.34 35.29l2 5.86h6.18a.83.83 0 0 1 .48 1.57l-5 3.67 1.86 5.89a.83.83 0 0 1-1.28.93l-5-3.59-5 3.59a.83.83 0 0 1-1.28-.93l1.86-5.89-5-3.67a.83.83 0 0 1 .49-1.5h6.18l2-5.86a.83.83 0 0 1 1.51-.07zM191.34 65.94l2 5.86h6.18a.83.83 0 0 1 .49 1.5l-5 3.67 1.86 5.89a.83.83 0 0 1-1.28.93l-5-3.59-5 3.59a.83.83 0 0 1-1.28-.93l1.86-5.89-5-3.67a.83.83 0 0 1 .49-1.5h6.18l2-5.86a.83.83 0 0 1 1.5 0zM191.34 96.6l2 5.86h6.18a.83.83 0 0 1 .49 1.5l-5.01 3.76 1.86 5.89a.83.83 0 0 1-1.28.93l-5-3.59-5 3.59a.83.83 0 0 1-1.28-.93l1.86-5.89-5-3.67a.83.83 0 0 1 .49-1.5h6.18l2-5.86a.83.83 0 0 1 1.51-.09zM191.34 127.25l2 5.86h6.18a.83.83 0 0 1 .49 1.5l-5 3.67 1.86 5.89a.83.83 0 0 1-1.28.93l-5-3.59-5 3.59a.83.83 0 0 1-1.28-.93l1.86-5.89-5-3.67a.83.83 0 0 1 .49-1.5h6.18l2-5.86a.83.83 0 0 1 1.5 0zM215.14 20.26l2 5.86h6.18a.83.83 0 0 1 .49 1.5l-5 3.67 1.86 5.89a.83.83 0 0 1-1.28.93l-5-3.59-5 3.59a.83.83 0 0 1-1.28-.93l1.86-5.89-5-3.67a.83.83 0 0 1 .49-1.5h6.18l2-5.86a.83.83 0 0 1 1.5 0zM215.14 50.91l2 5.86h6.18a.83.83 0 0 1 .49 1.5l-5 3.67 1.86 5.89a.83.83 0 0 1-1.28.93l-5-3.59-5 3.59a.83.83 0 0 1-1.28-.93l1.86-5.89-5-3.67a.83.83 0 0 1 .49-1.5h6.18l2-5.86a.83.83 0 0 1 1.5 0zM215.14 81.57l2 5.86h6.18a.83.83 0 0 1 .49 1.5l-5 3.67 1.86 5.89a.83.83 0 0 1-1.28.93l-5-3.59-5 3.59a.83.83 0 0 1-1.28-.93l1.86-5.89-5-3.67a.83.83 0 0 1 .49-1.5h6.18l2-5.86a.83.83 0 0 1 1.5 0zM215.14 112.22l2 5.86h6.18a.83.83 0 0 1 .49 1.5l-5 3.67 1.86 5.89a.83.83 0 0 1-1.28.93l-5-3.59-5 3.59a.83.83 0 0 1-1.28-.93l1.86-5.89-5-3.67a.83.83 0 0 1 .49-1.5h6.18l2-5.86a.83.83 0 0 1 1.5 0zM215.14 142.87l2 5.86h6.18a.83.83 0 0 1 .49 1.5l-5 3.67 1.86 5.89a.83.83 0 0 1-1.28.93l-5-3.59-5 3.59a.83.83 0 0 1-1.28-.93l1.86-5.89-5-3.67a.83.83 0 0 1 .49-1.5h6.18l2-5.86a.83.83 0 0 1 1.5 0z"/></svg>