<?xml version="1.0" encoding="UTF-8" standalone="no"?>
<svg
   xmlns:dc="http://purl.org/dc/elements/1.1/"
   xmlns:cc="http://creativecommons.org/ns#"
   xmlns:rdf="http://www.w3.org/1999/02/22-rdf-syntax-ns#"
   xmlns:svg="http://www.w3.org/2000/svg"
   xmlns="http://www.w3.org/2000/svg"
   xmlns:sodipodi="http://sodipodi.sourceforge.net/DTD/sodipodi-0.dtd"
   xmlns:inkscape="http://www.inkscape.org/namespaces/inkscape"
   width="107.2905"
   height="26"
   viewBox="0 0 107.2905 26"
   version="1.1"
   id="svg48"
   sodipodi:docname="ViewAllProducts_NoText_Cropped.svg"
   inkscape:version="0.92.3 (2405546, 2018-03-11)">
  <metadata
     id="metadata52">
    <rdf:RDF>
      <cc:Work
         rdf:about="">
        <dc:format>image/svg+xml</dc:format>
        <dc:type
           rdf:resource="http://purl.org/dc/dcmitype/StillImage" />
        <dc:title>ViewAllProducts_NoText</dc:title>
      </cc:Work>
    </rdf:RDF>
  </metadata>
  <sodipodi:namedview
     pagecolor="#ffffff"
     bordercolor="#666666"
     borderopacity="1"
     objecttolerance="10"
     gridtolerance="10"
     guidetolerance="10"
     inkscape:pageopacity="0"
     inkscape:pageshadow="2"
     inkscape:window-width="1001"
     inkscape:window-height="813"
     id="namedview50"
     showgrid="false"
     inkscape:zoom="4"
     inkscape:cx="54"
     inkscape:cy="31.663997"
     inkscape:window-x="755"
     inkscape:window-y="98"
     inkscape:window-maximized="0"
     inkscape:current-layer="svg48"
     fit-margin-top="0"
     fit-margin-left="0"
     fit-margin-right="0"
     fit-margin-bottom="0" />
  <!-- Generator: Sketch 51 (57462) - http://www.bohemiancoding.com/sketch -->
  <title
     id="title32">ViewAllProducts_NoText</title>
  <desc
     id="desc34">Created with Sketch.</desc>
  <defs
     id="defs36" />
  <path
     style="fill:#404040;fill-rule:nonzero;stroke:none;stroke-width:1"
     d="m 107.2905,13 c 0,4.575419 -2.5419,8.134078 -5.81005,8.134078 -0.14525,0 -0.29051,0 -0.36313,0 -0.14525,0 -0.2905,0 -0.36313,0.07263 v 1.089385 C 100.75419,24.692737 95.67039,26 90.87709,26 86.0838,26 81,24.692737 81,22.296089 V 3.703911 C 81,1.307263 86.0838,0 90.87709,0 c 4.43017,0 9.15084,1.089386 9.80447,3.195531 h 0.0726 v 1.597765 c 0.14525,0 0.2905,0 0.36313,0 0.14525,0 0.2905,0 0.36313,0 C 104.7486,4.865926 107.2905,8.497207 107.2905,13 Z M 98.50279,3.703911 c -0.72625,-0.50838 -3.19553,-1.52514 -7.69832,-1.52514 -4.43017,0 -6.899442,1.01676 -7.698325,1.52514 0.726257,0.50838 3.195535,1.525139 7.698325,1.525139 4.50279,0 6.97207,-1.01676 7.69832,-1.525139 z M 104.60335,13 c 0,-2.905028 -1.45251,-5.446927 -3.1229,-5.446927 -0.0726,0 -0.36313,0.290502 -0.50838,0.363128 -0.0726,0.07263 -0.14525,0.145252 -0.29051,0.217877 v 9.731844 c 0.0726,0 0.14526,0.07262 0.21788,0.145251 0.21788,0.145252 0.43576,0.363129 0.58101,0.363129 0.72625,0 1.52514,-0.581006 2.10614,-1.52514 0.65363,-1.01676 1.01676,-2.396648 1.01676,-3.849162 z"
     id="Shape"
     inkscape:connector-curvature="0" />
  <path
     style="fill:#404040;fill-rule:nonzero;stroke:none;stroke-width:1"
     d="m 46.540373,23.819876 c -0.565218,0 -1.04969,-0.484472 -1.04969,-0.968944 0,0 0,0 0,0 l -0.968944,0.16149 c 0.161491,0.645963 -0.322981,1.130435 -0.968944,1.21118 -0.645963,0.08075 -1.21118,-0.322981 -1.21118,-0.968944 -0.08075,-0.645962 0.403727,-1.21118 0.968944,-1.291925 l -0.161491,-0.968944 c -0.565217,0.08075 -1.21118,-0.322982 -1.21118,-0.968944 -0.08075,-0.645963 0.322982,-1.21118 0.968944,-1.291926 l -0.16149,-0.888199 c 0,0 -0.08075,0 -0.161491,0 -0.565218,0.08075 -1.130435,-0.322981 -1.21118,-0.888198 -0.08075,-0.484472 0.161491,-0.888199 0.565217,-1.130435 0.161491,-0.08074 0.322982,-0.161491 0.484472,-0.161491 l -0.16149,-0.968944 c -0.645963,0.08075 -1.211181,-0.322981 -1.211181,-0.968944 -0.08075,-0.484472 0.161491,-0.888199 0.565218,-1.049689 0.161491,-0.08075 0.322981,-0.161491 0.484472,-0.161491 l -0.161491,-0.968944 c -0.565217,0.08075 -1.21118,-0.322981 -1.21118,-0.968944 -0.08075,-0.484472 0.161491,-0.888199 0.565217,-1.04969 0.161491,-0.08075 0.242237,-0.16149 0.484473,-0.16149 L 41.614907,8.397515 c -0.645963,0.08075 -1.130435,-0.322981 -1.21118,-0.968944 -0.08075,-0.565217 0.322981,-1.21118 0.968944,-1.21118 L 41.21118,5.248447 C 40.565217,5.329193 40,4.844721 40,4.198758 c 0,-0.565218 0.322981,-1.130435 0.888199,-1.21118 0.645963,-0.08074 1.21118,0.322981 1.291925,0.968944 l 0.968944,-0.161491 c -0.08075,-0.645963 0.322982,-1.130435 0.968944,-1.21118 0.645963,-0.08074 1.130435,0.322981 1.21118,0.968944 l 0.968945,-0.161491 c -0.08075,-0.565217 0.322981,-1.130434 0.968944,-1.21118 0.645962,-0.08074 1.130434,0.322982 1.21118,0.968944 l 0.968944,-0.08075 c -0.08075,-0.645962 0.322981,-1.130434 0.968944,-1.21118 0.565217,-0.08075 1.21118,0.322982 1.21118,0.968944 l 0.968944,-0.08074 C 52.515533,2.099379 53,1.534162 53.645963,1.453416 c 0.242236,0 0.565217,0.08074 0.726708,0.242236 0,0 0,0.08074 0,0.161491 -0.08075,0.161491 -0.161491,0.807453 -0.161491,1.453416 -0.08075,0 -0.161491,0 -0.242236,0.08075 l 0.161491,0.968944 c 0,0 0.08075,0 0.08075,0 0,0.403727 0,0.726708 0,0.807454 0,0.08075 0,0.16149 0,0.242236 h -5.167702 c -1.37267,0 -2.583851,1.130434 -2.583851,2.503105 v 15.906833 z m 1.21118,0.888198 C 47.751553,25.434783 48.31677,26 49.124224,26 h 11.546584 c 0.726707,0 1.37267,-0.645963 1.37267,-1.291926 v -2.018633 c -0.484472,-0.161491 -0.888199,-0.403727 -1.291925,-0.645963 -0.726708,-0.484472 -1.372671,-0.565217 -2.099379,-0.403726 -0.08075,0 -0.161491,0 -0.242236,0 -0.08075,0 -0.484472,0 -0.726708,-0.322982 -0.565218,-0.565217 -1.21118,-0.645963 -2.180124,-0.726708 -0.565218,0 -1.130435,0 -1.695653,-0.08075 -1.453416,-0.242236 -2.42236,-0.968944 -2.987577,-2.099379 -0.403727,-0.807454 -0.484472,-1.614907 -0.322982,-2.42236 0.242236,-1.04969 0.807454,-2.018634 1.291926,-2.664597 1.049689,-1.534161 1.291925,-2.745341 0.807453,-4.118012 -0.16149,-0.322981 0,-0.726708 0.322982,-0.968944 0.565217,-0.484472 0.888198,-0.968944 1.130434,-1.776398 h -5.006211 c -0.726708,0 -1.37267,0.565218 -1.37267,1.291926 V 24.708074 Z M 68.583851,2.745342 c 0,-0.08075 0,-0.08075 0,0 L 67.937888,2.503106 c -0.242236,0 -0.484472,0 -0.726708,0 -0.645963,0 -1.21118,0 -1.857143,-0.08075 -0.645963,-0.08075 -1.372671,-0.322982 -1.937888,-0.888199 0,0 0,0 0,0 -0.888199,0.161491 -1.695652,0 -2.583851,-0.403727 C 60.590062,0.968939 60.347826,0.888194 60.186335,0.807448 59.944099,0.645958 59.701863,0.484467 59.459627,0.403722 58.975155,0.161491 58.409938,0 57.925466,0 c -1.04969,0 -1.937888,0.645963 -2.26087,1.695652 -0.403726,1.291926 -0.16149,3.391304 -0.16149,3.391304 0,1.291926 -0.242236,2.906833 -1.614907,4.037268 0.726708,2.099379 -0.242236,3.795031 -1.04969,4.925465 -0.645962,0.888199 -0.888198,1.534162 -1.049689,2.26087 -0.161491,0.565217 -0.08075,1.130435 0.161491,1.695652 0.322981,0.807454 1.049689,1.291926 2.099378,1.453416 0.403727,0 0.968944,0 1.453417,0 1.695652,0 2.42236,0.484472 2.906832,0.888199 0.242236,-0.08075 0.484472,-0.08075 0.726708,-0.08075 0.645963,0 1.372671,0.16149 2.099379,0.645962 0.403727,0.242236 0.888199,0.484472 1.372671,0.645963 0.484472,0.161491 0.888198,0.322982 1.37267,0.322982 0.888199,0 1.614907,-0.484473 2.018634,-1.291926 0.403727,-0.726708 0.565217,-1.372671 0.484472,-2.099379 0,-0.16149 0,-0.242236 0,-0.403727 -0.08074,-1.049689 -0.161491,-2.099378 0.161491,-3.149068 0.16149,-0.565217 0.484472,-1.453416 1.291925,-2.099379 -0.726708,-2.099379 0.242236,-3.795031 1.04969,-4.925465 0.403726,-0.645963 0.888198,-1.291926 1.049689,-2.099379 0.403727,-1.291926 -0.08074,-2.341615 -1.453416,-3.068323 z"
     id="path40"
     inkscape:connector-curvature="0" />
  <path
     style="fill:#404040;fill-rule:nonzero;stroke:none;stroke-width:1"
     d="m 0.848665,4.397626 2.005934,6.249258 H 1.928783 L 0,4.783383 Z m 5.554896,6.249258 H 4.397626 L 2.31454,4.089021 9.181009,1.002967 c 0.771513,0.925816 2.700297,3.086054 5.477745,3.240356 0.07715,0 0.154302,0 0.308605,0 2.005935,0 4.01187,-1.080118 5.863501,-3.240356 l 6.403561,2.931751 -2.083086,6.712166 H 23.222552 L 24.148368,25.845697 5.940653,26 Z M 10.261128,0.385757 c 0.694362,0.848664 2.31454,2.468842 4.474777,2.623145 1.697329,0.07715 3.317507,-0.771513 5.014837,-2.623145 L 18.979229,0 c 0,0 -3.934719,4.551929 -7.792285,0 z m 18.362017,3.934718 0.848665,0.385756 -1.774481,5.940653 h -1.002967 z"
     id="path42"
     inkscape:connector-curvature="0" />
</svg>
