<?xml version="1.0" encoding="utf-8"?>
<!-- Generator: Adobe Illustrator 25.2.3, SVG Export Plug-In . SVG Version: 6.00 Build 0)  -->
<svg version="1.1" id="Layer_1" xmlns="http://www.w3.org/2000/svg" xmlns:xlink="http://www.w3.org/1999/xlink" x="0px" y="0px"
	 width="683.1px" height="248.3px" viewBox="0 0 683.1 248.3" style="enable-background:new 0 0 683.1 248.3;" xml:space="preserve"
	>
<style type="text/css">
	.st0{fill:#FFFFFF;}
</style>
<g>
	<path class="st0" d="M238.7,111.9c0-2.2,1.3-7.8,2.4-11.8l16-59.9c0.4-1.6-0.7-2.5-2.7-2.5h-13.8c-2,0-2.9,0.7-3.8,1.8l-7.1,7.8
		c-6.7-6.7-16.9-11.5-29.8-11.5c-22.4,0-47.1,15.5-54.2,46.8c-8,35.1,10,59.3,40.9,59.3c11.8,0,21.8-4.4,28.8-11.5
		c4.5,7.1,11.1,10.6,23.3,10.6c12.2,0,19.3-5.1,21.1-12.9c2.2-8.9-2-14-9.3-14c-3.6,0-5.8,1.6-8,1.6
		C240,115.7,238.7,114.3,238.7,111.9L238.7,111.9z M63.7,25.7c11.1,0,21.1,6.5,33.7,6.5c1.8,0,3.6-0.2,5.3-0.7L1.4,121
		c-1.8,1.5-1.8,3.6-0.4,5.3l14.2,15.3c1.6,1.8,3.5,1.6,6.4-0.2c5.1-3.3,10.9-7.3,19.7-7.3c14.9,0,32.4,8,52.4,8
		c13.6,0.2,24.2-5.1,29.5-12.6c5.5-7.8,6.2-14.9,6.2-21.1c0-8.9-5.5-15.7-14.6-15.7c-7.5,0-12,4.7-12.6,10.6
		c-0.4,3.1,0.2,7.5-1.8,10.4c-1.8,2.7-4.6,3.8-8.4,3.8c-10.6,0-21.1-6.2-36.6-6.2c-2.7,0-5.5,0.5-8,1.1l100.1-88.3
		c1.6-1.5,1.6-2.7,0.2-4.4L133.9,5.6c-1.3-1.5-2.5-1.5-4-0.2c-3.8,3.3-10.4,5.5-18.9,5.5c-16.2,0-31.7-8.6-49.7-8.6
		c-13.1,0-22.2,3.8-29.1,10.6c-6.4,6.4-9.1,15.8-9.1,22.8c0,8.2,5.1,15.1,14.2,15.1c7.8,0,13.1-4.9,13.1-11.6c0-4,0.9-7.8,2.9-10
		C55.5,26.8,58.7,25.7,63.7,25.7L63.7,25.7z M632.2,142c16.7,0,29.7-5.5,35.1-10.9c3.5-3.5,5.5-7.5,5.5-12c0-5.6-4-9.8-11.3-9.8
		c-10,0-13.8,9.8-29.1,9.8c-16.2,0-27.8-10.2-28.2-25.8c10,4.7,22.7,8,37.9,8c18.7,0,35.1-6.7,39.7-22.2
		c6.6-22.9-9.3-43.1-42.9-43.1c-28.9,0-51.1,16.4-58.4,41.1C570.3,111.2,590.5,142,632.2,142L632.2,142z M402.5,139.9
		c1.1,1.5,3.5,1.3,5.5-0.4c4.4-3.5,8.6-6.2,16.6-6.2c15.1,0,27.8,8,45.9,8c13.8,0.2,22.4-4.9,27.3-12c3.8-5.5,5.6-12.9,5.6-18.7
		c0-8.2-4.7-13.6-12.9-13.6c-7.8,0-11.3,4-11.6,9.8c-0.2,2.4-0.2,6.9-1.6,9.1c-1.5,2.4-4,2.9-7.3,2.9c-8.6,0-19.5-5.5-30.8-5.5h-1.3
		l74.3-59.3c1.3-0.9,1.8-3.1,0.4-4.2l-11.3-13.3c-2-1.8-3.5-1.6-5.5,0c-3.8,3.1-7.5,6.2-15.3,6.2c-12.7,0-25.8-7.6-43.7-7.6
		c-12.7,0-19.5,4.4-24.4,9.5c-4.7,5.1-8,13.3-8,21.1c0,8,4.7,13.1,12.6,13.1c7.1,0,11.3-4,11.3-9.6c0-3.3,0.2-6.2,1.6-8.4
		c1.3-2.2,4.2-3.8,8.7-3.8c7.1,0,20,4.5,28.4,4.5h0.5l-75.5,59c-1.5,1.1-1.5,3.6-0.5,4.9L402.5,139.9z M318.1,113.4
		c-1.1,0-2,0-3.1,0.2l73.9-59.3c1.3-0.9,1.8-3.1,0.4-4.2l-11.3-13.5c-2-1.8-3.5-1.6-5.5,0c-3.8,3.1-7.5,6.2-15.3,6.2
		c-12.7,0-26.6-7.6-44.4-7.6c-12.7,0-19.5,4.4-24.4,9.5c-4.7,5.1-7.6,13.3-7.6,21.1c0,8,4.7,13.1,12.6,13.1c6.7,0,11.3-4,11.3-9.6
		c0-3.3,0.5-6.2,2-8.4c1.3-2.2,4.2-3.8,8.7-3.8c7.1,0,20,4.5,28.4,4.5h1.1l-74.4,58.1c-1.5,1.3-1.5,3.6-0.5,4.9l11.8,15.5
		c1.1,1.5,3.5,1.3,5.5-0.4c4.4-3.5,8.4-6.2,16.4-6.2c14.2,0,26.4,8,44.4,8c13.8,0.2,22.4-4.9,27.3-12c3.8-5.5,5.6-12.9,5.6-18.7
		c0-8.2-4.7-13.6-12.9-13.6c-7.3,0-11.3,4-11.6,9.8c-0.2,2.4-0.2,6.9-1.6,9.1c-1.5,2.4-4,2.9-7.3,2.9
		C338.8,118.8,329.5,113.4,318.1,113.4L318.1,113.4z M576.5,2.6c0.4-1.6-0.5-2.6-2.4-2.6h-20.7c-2.2,0-3.1,1.1-3.6,3.1l-26.4,90.4
		c-3.5,11.8-4.5,17.8-4.5,24.9c0,5.6,2.2,11.5,5.6,15.1c4,4.2,10.7,7.5,21.8,7.5c11.6,0,19.5-4.2,21.8-12.4
		c2.5-8.6-2.5-14.2-9.3-14.2c-5.3,0-6.7,1.8-9.5,1.8c-2,0-3.8-1.5-3.8-4c0-2.9,1.5-9.1,2.7-13.5L576.5,2.6z M194.1,118.1
		c-15.5,0-25.3-11.6-20.7-32.6c3.8-17.8,16.6-27.8,29.8-27.8c8.4,0,14.4,3.6,18.2,8.4L210,111C206.1,115.2,201.1,118.1,194.1,118.1
		L194.1,118.1z M638,56.8c13.1,0,20.4,7.1,18.2,14.4c-1.6,6-7.5,8.6-20.2,8.6c-10.2,0-20-2.5-27.7-5.5C613.8,63.5,624,56.8,638,56.8
		z"/>
	<g>
		<path class="st0" d="M68.2,217.7c0-11.9,8.9-20,20-20c8.1,0,12.9,4.1,15.8,8.7l-5.8,3c-1.9-3.2-5.6-5.6-10-5.6
			c-7.4,0-13,5.8-13,14c0,8.1,5.7,14,13,14c4.5,0,8.2-2.4,10-5.6l5.8,3c-3,4.6-7.7,8.7-15.8,8.7C77.1,237.6,68.2,229.5,68.2,217.7z"
			/>
		<path class="st0" d="M109.3,209h6.1v4.1c2.1-2.7,5.4-4.7,9.1-4.7v6c-0.5-0.1-1.2-0.2-1.9-0.2c-2.5,0-6,1.7-7.2,3.7v19h-6.1V209z"
			/>
		<path class="st0" d="M141.8,208.3c8.4,0,13.8,6.4,13.8,15.2v1.4H134c0.5,4.2,3.6,7.7,8.9,7.7c2.7,0,6-1.1,7.9-3.1l2.8,4
			c-2.8,2.7-6.9,4.1-11.3,4.1c-8.4,0-14.6-5.8-14.6-14.7C127.6,214.8,133.5,208.3,141.8,208.3z M133.9,220.7h15.7
			c-0.1-3.3-2.4-7.4-7.9-7.4C136.6,213.3,134.2,217.3,133.9,220.7z"/>
		<path class="st0" d="M181.3,233.1c-2.1,2.8-5.4,4.5-9,4.5c-7.2,0-12.4-5.4-12.4-14.6c0-9,5.2-14.7,12.4-14.7c3.5,0,6.8,1.6,9,4.6
			V209h6.1v28h-6.1V233.1z M181.3,217.5c-1.4-2.1-4.3-3.8-7.2-3.8c-4.8,0-7.9,3.8-7.9,9.3c0,5.4,3.1,9.3,7.9,9.3
			c2.9,0,5.8-1.6,7.2-3.7V217.5z"/>
		<path class="st0" d="M196.4,230.5v-16.1h-4.6V209h4.6v-7.6h6.1v7.6h5.7v5.3h-5.7V229c0,1.9,0.9,3.3,2.7,3.3c1.2,0,2.3-0.5,2.7-1
			l1.4,4.6c-1.1,1-2.9,1.8-5.7,1.8C198.9,237.6,196.4,235.1,196.4,230.5z"/>
		<path class="st0" d="M226.1,208.3c8.4,0,13.8,6.4,13.8,15.2v1.4h-21.6c0.5,4.2,3.6,7.7,8.9,7.7c2.7,0,6-1.1,7.9-3.1l2.8,4
			c-2.8,2.7-6.9,4.1-11.3,4.1c-8.4,0-14.6-5.8-14.6-14.7C211.9,214.8,217.8,208.3,226.1,208.3z M218.2,220.7H234
			c-0.1-3.3-2.4-7.4-7.9-7.4C220.9,213.3,218.5,217.3,218.2,220.7z"/>
		<path class="st0" d="M263.3,239.7c2.1,2.5,5.3,3.6,8.5,3.6c5,0,7.9-2.8,7.9-7.8v-3.2c-2,2.3-5.5,4.4-9.9,4.4c-6,0-9-3.1-9-8.9V209
			h6.1v16.7c0,4.3,2.2,5.7,5.6,5.7c3.1,0,5.7-1.7,7.2-3.6V209h6.1v26.6c0,8.4-6,12.7-14,12.7c-4.7,0-8.2-1.3-11.3-4.2L263.3,239.7z"
			/>
		<path class="st0" d="M291.9,222.9c0-8,5.5-14.6,14.4-14.6c9,0,14.4,6.7,14.4,14.6c0,8-5.4,14.7-14.4,14.7
			C297.4,237.6,291.9,231,291.9,222.9z M314.3,222.9c0-4.9-2.9-9.3-8.1-9.3c-5.2,0-8,4.3-8,9.3c0,5,2.9,9.3,8,9.3
			C311.4,232.3,314.3,227.9,314.3,222.9z"/>
		<path class="st0" d="M345.6,233.2c-2,2.3-5.5,4.4-9.9,4.4c-6,0-9-3.1-9-8.9V209h6.1v17.6c0,4.3,2.2,5.7,5.6,5.7
			c3.1,0,5.7-1.7,7.2-3.6V209h6.1v28h-6.1V233.2z"/>
		<path class="st0" d="M359.6,209h6.1v4.1c2.1-2.7,5.4-4.7,9.1-4.7v6c-0.5-0.1-1.2-0.2-1.9-0.2c-2.5,0-6,1.7-7.2,3.7v19h-6.1V209z"
			/>
		<path class="st0" d="M428.8,218.7c0-3-1.3-5-4.6-5c-2.7,0-5.3,1.9-6.5,3.7v19.6h-6.1v-18.2c0-3-1.3-5-4.6-5
			c-2.7,0-5.2,1.9-6.4,3.8v19.5h-6.1v-28h6.1v3.8c1.2-1.7,4.9-4.5,9.1-4.5c4.2,0,6.7,2.1,7.6,5.2c1.6-2.5,5.3-5.2,9.5-5.2
			c5.2,0,8,2.8,8,8.5v20.2h-6.1V218.7z"/>
		<path class="st0" d="M441,222.9c0-8,5.5-14.6,14.4-14.6c9,0,14.4,6.7,14.4,14.6c0,8-5.4,14.7-14.4,14.7
			C446.5,237.6,441,231,441,222.9z M463.5,222.9c0-4.9-2.9-9.3-8.1-9.3c-5.2,0-8,4.3-8,9.3c0,5,2.9,9.3,8,9.3
			C460.6,232.3,463.5,227.9,463.5,222.9z"/>
		<path class="st0" d="M510.2,218.7c0-3-1.3-5-4.6-5c-2.7,0-5.3,1.9-6.5,3.7v19.6H493v-18.2c0-3-1.3-5-4.6-5c-2.7,0-5.2,1.9-6.4,3.8
			v19.5h-6.1v-28h6.1v3.8c1.2-1.7,4.9-4.5,9.1-4.5c4.2,0,6.7,2.1,7.6,5.2c1.6-2.5,5.3-5.2,9.5-5.2c5.2,0,8,2.8,8,8.5v20.2h-6.1
			V218.7z"/>
		<path class="st0" d="M536.6,208.3c8.4,0,13.8,6.4,13.8,15.2v1.4h-21.6c0.5,4.2,3.6,7.7,8.9,7.7c2.7,0,6-1.1,7.9-3.1l2.8,4
			c-2.8,2.7-6.9,4.1-11.3,4.1c-8.4,0-14.6-5.8-14.6-14.7C522.4,214.8,528.3,208.3,536.6,208.3z M528.7,220.7h15.7
			c-0.1-3.3-2.4-7.4-7.9-7.4C531.4,213.3,529,217.3,528.7,220.7z"/>
		<path class="st0" d="M575.2,219.5c0-4.3-2.2-5.8-5.6-5.8c-3.1,0-5.8,1.9-7.2,3.8v19.5h-6.1v-28h6.1v3.8c1.9-2.2,5.4-4.5,9.8-4.5
			c6,0,9,3.2,9,9v19.7h-6.1V219.5z"/>
		<path class="st0" d="M590.4,230.5v-16.1h-4.6V209h4.6v-7.6h6.1v7.6h5.7v5.3h-5.7V229c0,1.9,0.9,3.3,2.7,3.3c1.2,0,2.3-0.5,2.7-1
			l1.4,4.6c-1.1,1-2.9,1.8-5.7,1.8C592.9,237.6,590.4,235.1,590.4,230.5z"/>
		<path class="st0" d="M609.9,211.1h-1.6v-11.2h-3.6v-1.5h8.8v1.5h-3.6V211.1z M626.3,200.5l-4.3,10.5h-0.5l-4.3-10.5v10.5h-1.6
			v-12.7h2.5l3.7,9.3l3.7-9.3h2.5v12.7h-1.6V200.5z"/>
	</g>
</g>
</svg>
